<svg width="1024" height="767.9999999999999" xmlns="http://www.w3.org/2000/svg">
 <!-- Created with Method Draw - http://github.com/duopixel/Method-Draw/ -->

 <g>
  <title>background</title>
  <rect x="-1" y="-1" width="1026" height="770" id="canvas_background" fill="#fff"/>
  <g id="canvasGrid" display="none">
   <rect id="svg_1" width="100%" height="100%" x="0" y="0" stroke-width="0" fill="url(#gridpattern)"/>
  </g>
 </g>
 <g>
  <title>Layer 1</title>
  <rect fill="none" stroke-width="1.5" stroke-opacity="null" x="504.500255" y="75.500041" width="425.000004" height="489.666671" id="svg_6" stroke="#000"/>
  <rect fill="none" stroke-width="1.5" stroke-opacity="null" x="85.5" y="78.833322" width="176" height="326.165463" id="svg_2" stroke="#000"/>
  <text fill="#000000" stroke="#000" stroke-width="0" stroke-opacity="null" x="90.499991" y="102.166657" id="svg_3" font-size="24" font-family="Helvetica, Arial, sans-serif" text-anchor="start" xml:space="preserve">GitHub</text>
  <rect fill="none" stroke="#000" stroke-width="1.5" stroke-opacity="null" x="94.999939" y="573.498734" width="176" height="77" id="svg_4"/>
  <text fill="#000000" stroke="#000" stroke-width="0" stroke-opacity="null" fill-opacity="null" x="99.999685" y="599.498677" id="svg_5" font-size="24" font-family="Helvetica, Arial, sans-serif" text-anchor="start" xml:space="preserve">Client</text>
  <text fill="#000000" stroke="#000" stroke-width="0" stroke-opacity="null" fill-opacity="null" x="510.166626" y="98.833325" id="svg_7" font-size="24" font-family="Helvetica, Arial, sans-serif" text-anchor="start" xml:space="preserve">www.sfpgmr.net</text>
  <path fill="#000000" stroke-width="1.5" stroke-opacity="null" d="m150.84997,486.04392l20.50001,-56.36438l20.50001,56.36438l-10.25001,0l0,56.63559l-20.50001,0l0,-56.63559l-10.25,0z" id="svg_8" stroke="#000"/>
  <text fill="#000000" stroke="#000" stroke-width="0" stroke-opacity="null" x="201.499973" y="514.998726" id="svg_9" font-size="24" font-family="Helvetica, Arial, sans-serif" text-anchor="start" xml:space="preserve">1.push</text>
  <path fill="#000000" stroke-width="1.5" stroke-opacity="null" d="m402.87502,168.80217l13.83334,-18.7881l13.83334,18.7881l-6.91667,0l0,18.87852l-13.83334,0l0,-18.87852l-6.91667,0z" id="svg_10" transform="rotate(90 416.70834350585943,168.84736633300784) " stroke="#000"/>
  <text fill="#000000" stroke-width="0" stroke-opacity="null" x="282.999983" y="173.500006" id="svg_11" font-size="18" font-family="Helvetica, Arial, sans-serif" text-anchor="start" xml:space="preserve" stroke="#000">2. webhook</text>
  <path fill="#000000" stroke-width="1.5" stroke-opacity="null" d="m321.87497,316.79101l9.83334,-23.44358l9.83334,23.44358l-4.91667,0l0,23.55638l-9.83335,0l0,-23.55638l-4.91666,0z" id="svg_12" transform="rotate(-90 331.7083129882813,316.847412109375) " stroke="#000"/>
  <text fill="#000000" stroke-width="0" stroke-opacity="null" x="361.697912" y="327.500016" id="svg_13" font-size="18" font-family="Helvetica, Arial, sans-serif" text-anchor="start" xml:space="preserve" stroke="#000">4. pull</text>
  <path fill="#000000" stroke="#000" stroke-width="1.5" stroke-opacity="null" d="m211.09682,227.93387c-3.68184,-0.64634 -7.51389,-1.07191 -10.62552,-1.1871l-0.54875,-0.01919c0.12569,-0.28798 0.22072,-0.48316 0.25138,-0.51196c0.06744,-0.0576 0.12263,-0.30078 0.12876,-0.53756c0,-0.13118 0.05518,-0.55675 0.14102,-1.1199c0.84305,0.032 1.96201,0.05759 3.18214,0.06719c4.71189,0.0384 9.64145,0.43517 13.02286,1.05911c2.01413,0.37117 2.67937,0.35837 1.19253,-0.01919c-1.50523,-0.38077 -5.96881,-0.94073 -9.52496,-1.1839c-2.38813,-0.16959 -5.81246,-0.23358 -7.82965,-0.19839c0.05824,-0.36477 0.12569,-0.77113 0.1962,-1.1871c0.2851,-1.60946 0.38014,-3.22853 0.38627,-6.45065c0.00613,-4.99798 -0.25138,-6.37387 -1.8118,-9.67919c-0.63459,-1.35028 -1.35195,-2.49579 -2.21952,-3.5325c0.75721,-2.3326 0.73882,-5.9451 -0.04599,-9.11283c-0.64685,-2.59818 -0.87371,-2.76457 -3.13002,-2.26541c-1.91297,0.42556 -3.44579,1.00472 -5.41087,2.03823c-0.92889,0.48956 -2.21033,1.25109 -3.13922,1.84944c-2.42186,-0.88952 -4.92649,-1.47827 -7.59973,-1.79505c-2.71003,-0.31997 -9.35328,-0.14078 -11.71077,0.31358c-2.30536,0.44476 -4.3808,0.98871 -6.26004,1.63506c-0.93809,-0.60475 -2.29924,-1.42068 -3.27105,-1.93264c-1.97427,-1.03671 -3.50709,-1.61266 -5.42619,-2.03823c-2.25018,-0.50235 -2.48317,-0.33277 -3.12696,2.26541c-0.79706,3.20933 -0.8032,6.88262 -0.01532,9.20883c0.09196,0.26557 0.14715,0.45436 0.16861,0.60155c-3.19441,4.19804 -4.23673,8.89525 -3.54389,15.45149c0.18087,1.70866 0.45985,3.27653 0.84918,4.7132c-2.03865,-0.01279 -4.93875,0.064 -7.03259,0.20479c-3.56228,0.24638 -8.02585,0.79993 -9.53109,1.1807c-1.48377,0.37757 -0.82466,0.39036 1.19254,0.0224c3.38141,-0.62075 8.31403,-1.02392 13.02286,-1.05912c0.88904,-0.0032 1.71983,-0.02239 2.43412,-0.04159c0.2146,0.75833 0.45985,1.48147 0.73882,2.16942l-0.02146,0.0032c-3.11163,0.11199 -6.94062,0.53755 -10.62246,1.1839c-2.76214,0.48315 -6.83945,1.44947 -7.31463,1.72785c-0.4997,0.29117 -0.09197,0.22718 2.04785,-0.33917c3.90257,-1.03031 8.97621,-1.82065 15.26078,-2.371l0.70204,-0.064c1.34888,3.27013 3.42739,5.76592 6.36428,7.71135c1.79646,1.1935 4.67511,2.419 6.12516,2.61098c0.39853,0.0512 1.55734,0.30078 2.57514,0.55036c1.02086,0.24958 3.01659,0.62394 4.43292,0.83833l0.03372,0c-0.02759,0.01919 -0.05211,0.03199 -0.07664,0.05119c-1.71676,0.93112 -2.83265,2.3806 -3.58374,4.66201c-0.33722,0.10559 -0.75721,0.24958 -1.21093,0.41276c-1.62172,0.57596 -2.25325,0.69435 -3.89643,0.70714c-1.7045,0.0128 -2.10917,-0.06399 -3.12696,-0.56315c-1.48071,-0.71994 -2.86025,-2.04463 -3.77994,-3.62529c-1.53589,-2.64298 -4.19074,-4.51162 -6.40413,-4.51162c-1.89151,0 -2.25019,0.79993 -0.88291,1.96783c2.06011,1.75665 3.59907,3.5485 4.23059,4.91799c0.35562,0.76793 0.9013,1.95503 1.21706,2.63658c0.33416,0.72633 1.04845,1.71185 1.72903,2.39339c1.60026,1.59347 3.14535,2.355 5.45071,2.71337c1.54509,0.23678 1.92523,0.23678 3.74929,-0.00639c0.87984,-0.112 1.62172,-0.24318 2.28697,-0.40637c0,0.78073 0,1.67986 0,2.73577c0,5.65072 -0.06438,7.46817 -0.27898,7.99932c-0.40466,1.01112 -1.31209,2.05103 -2.195,2.51819c-0.87984,0.46716 -1.15268,0.98232 -0.78174,1.45588c0.2054,0.25598 0.60087,0.30077 1.92829,0.21118c2.51996,-0.16319 4.3011,-1.1359 5.20853,-2.85096c0.29124,-0.55035 0.35868,-1.65746 0.45065,-7.41697c0.0981,-6.24908 0.14102,-6.85063 0.53036,-7.74335c0.23606,-0.53116 0.57634,-1.10711 0.76641,-1.26389c0.31883,-0.27518 0.34029,0.26877 0.34029,7.74334c-0.00307,8.24891 -0.08277,9.24402 -0.87371,10.83109c-0.17781,0.36157 -0.51503,0.83193 -0.75108,1.05591c-0.41387,0.39357 -0.58861,1.40148 -0.30044,1.70546c0.47518,0.49275 2.85718,-0.28158 4.15702,-1.35029c2.21339,-1.83025 2.47704,-3.34372 2.49543,-14.274l0.0092,-6.41225l0.67138,0.06719l0.67137,0.06399l0.11037,8.3865c0.12569,9.4424 0.14408,9.57999 1.68303,11.40384c0.87371,1.03031 1.75355,1.59986 3.18521,2.04462c1.91603,0.60155 2.49237,-0.32637 1.2048,-1.93583c-1.401,-1.75026 -1.46845,-2.419 -1.3918,-12.77973c0.05211,-6.64264 0.05211,-6.64264 0.46291,-6.25547c0.86451,0.81913 1.03005,2.16302 1.03005,8.39289c0,7.73695 0.21153,8.47289 2.82959,9.82318c1.2232,0.62394 1.56655,0.70074 3.13309,0.70714c1.66771,0.0064 1.76888,-0.0192 1.83019,-0.47356c0.05212,-0.36797 -0.15328,-0.61755 -0.93195,-1.11351c-1.02086,-0.65594 -1.72903,-1.49427 -2.17354,-2.55018c-0.16861,-0.40637 -0.28204,-3.06855 -0.35868,-8.54968c-0.11037,-7.65696 -0.13489,-8.00573 -0.59167,-9.20563c-0.6162,-1.61266 -1.55735,-2.88615 -2.74989,-3.73088c-0.30963,-0.21118 -0.61926,-0.38717 -1.02086,-0.51836c0.49357,-0.05119 0.97181,-0.10559 1.43472,-0.17598c4.8192,-0.66875 7.36675,-1.2255 9.41153,-2.05103c4.32563,-1.73745 7.25025,-4.62361 8.83519,-8.71607c0.14102,-0.36476 0.28204,-0.71034 0.4016,-0.98871l1.22013,0.10559c6.28764,0.55355 11.36128,1.34389 15.26385,2.3774c2.13982,0.56635 2.54755,0.63354 2.04785,0.33597c-0.46598,-0.27198 -4.54329,-1.2351 -7.30237,-1.71826zm-18.43679,-0.09919c-0.71429,1.63826 -2.70696,3.74369 -4.31642,4.56922c-1.58801,0.81913 -4.07731,1.44308 -6.89771,1.74065c-1.92829,0.20478 -12.68257,0.26558 -14.45758,0.08319c-5.87684,-0.60155 -9.16934,-1.78225 -11.59733,-4.14685c-2.29924,-2.24621 -3.37221,-5.29555 -3.18521,-9.04883c0.11956,-2.34861 0.66218,-3.82368 2.08158,-5.61553c1.29063,-1.63186 2.64871,-2.63978 4.24898,-3.15173c1.33969,-0.42877 5.45072,-0.46716 10.97807,-0.096c2.44332,0.16319 4.46358,0.16319 6.90384,0c5.7818,-0.38076 9.64145,-0.33917 11.06698,0.12159c2.24098,0.72314 4.2827,2.66858 5.50896,5.26036c0.55182,1.1583 0.65911,1.65106 0.73882,3.43971c0.11036,2.46379 -0.29737,5.08117 -1.07298,6.84422zm-29.15428,-10.57831c-3.28944,-0.60154 -5.16868,5.27636 -2.64565,8.27771c1.19866,1.42388 2.26244,1.65746 3.59293,0.79353c1.23239,-0.80313 1.9007,-2.30381 1.9007,-4.24924c0,-2.59498 -1.13122,-4.50202 -2.84798,-4.822zm19.96655,0.35197c-3.28944,-0.60154 -5.17175,5.26996 -2.64872,8.27451c1.20173,1.42388 2.26244,1.66066 3.596,0.79033c1.22932,-0.79993 1.9007,-2.30381 1.9007,-4.24924c0,-2.58538 -1.13122,-4.49882 -2.84798,-4.8156zm-8.84746,11.55743c-0.07051,0.23678 -0.41386,0.58875 -0.76028,0.77753c-0.87677,0.47036 -1.50829,0.30718 -2.43412,-0.57275c-0.57327,-0.54075 -0.83385,-0.82553 -1.0086,-0.25918c-0.16247,0.52476 0.85839,1.57747 1.64626,1.90064c0.72349,0.30078 1.24158,0.31038 2.02639,-0.03199c0.77867,-0.33917 1.45924,-1.2511 1.45924,-1.84305c0,-0.55035 -0.75721,-0.52475 -0.92889,0.0288zm-0.97181,-1.83985c0.4997,-0.46076 0.61313,-1.40788 0.13489,-1.91023s-1.45005,-0.42557 -1.83019,0.13758c-0.44145,0.65915 -0.2054,1.16151 0.11037,1.69586c0.4905,0.39677 1.14961,0.47676 1.58493,0.07679z" id="svg_14"/>
  <rect fill="#ffffff" stroke-width="1.5" stroke-opacity="null" x="460.999978" y="138.666665" width="153.666677" height="56.834316" id="svg_15" stroke="#000"/>
  <text fill="#000000" stroke="#000" stroke-width="0" stroke-opacity="null" fill-opacity="null" x="469.166643" y="156.499997" id="svg_17" font-size="18" font-family="Helvetica, Arial, sans-serif" text-anchor="start" xml:space="preserve">nginx</text>
  <rect fill="#ffffff" stroke-width="1.5" stroke-opacity="null" x="462.003172" y="272.998317" width="161.000002" height="228.000024" id="svg_18" stroke="#000"/>
  <text fill="#000000" stroke-width="0" stroke-opacity="null" fill-opacity="null" x="469.169783" y="295.331056" id="svg_19" font-size="18" font-family="Helvetica, Arial, sans-serif" text-anchor="start" xml:space="preserve" stroke="#000">node</text>
  <path fill="#000000" stroke-width="1.5" stroke-opacity="null" d="m571.12258,235.34925l8.75017,-33.41989l8.75017,33.41989l-4.37509,0l0,33.5807l-8.75017,0l0,-33.5807l-4.37508,0z" id="svg_20" transform="rotate(180 579.872802734375,235.42965698242188) " stroke="#000"/>
  <text style="cursor: move;" stroke="#000" fill="#000000" stroke-width="0" stroke-opacity="null" x="361.692703" y="361.500025" id="svg_22" font-size="18" font-family="Helvetica, Arial, sans-serif" text-anchor="start" xml:space="preserve">5. git diff</text>
  <path transform="rotate(-90 331.7083129882813,355.847412109375) " fill="#000000" stroke-width="1.5" stroke-opacity="null" d="m321.87497,355.79102l9.83334,-23.44358l9.83334,23.44358l-4.91667,0l0,23.55638l-9.83335,0l0,-23.55638l-4.91666,0z" id="svg_23" stroke="#000"/>
  <path fill="#000000" stroke="#000" stroke-width="1.5" stroke-opacity="null" d="m765.70924,445.2878c-4.92454,-3.72524 -10.23593,-6.70939 -14.59291,-7.11622c-0.23719,-0.02639 -0.48285,-0.04178 -0.74263,-0.04618l-28.67472,0c-0.45744,0 -0.90923,0.13854 -1.23113,0.39583c-0.31908,0.2507 -0.50827,0.60255 -0.50827,0.961l0,56.62627c0,0.35625 0.17789,0.69711 0.50827,0.9566c0.33037,0.25509 0.76522,0.39363 1.23113,0.39363l51.85451,0c0.45744,0 0.89511,-0.13634 1.22548,-0.39363c0.33038,-0.25729 0.51392,-0.59815 0.51392,-0.9566l0,-37.68121c-0.10165,-4.37397 -4.50099,-9.14377 -9.58365,-13.13949zm-2.44816,1.9176c2.27309,1.72847 4.31745,3.68565 5.84225,5.57246c-1.3215,-0.40683 -2.70793,-0.7081 -4.00966,-0.9478c-2.86606,-0.50139 -5.67,-0.70371 -7.41223,-0.78508c0.00847,-0.29247 0.0113,-0.62233 0.0113,-0.98078c0,-1.911 -0.15531,-4.63566 -1.00524,-7.03706c-0.00847,-0.02199 -0.01412,-0.04398 -0.02541,-0.06597c2.15731,1.10834 4.50663,2.57952 6.59899,4.24422l0,0.00001zm8.54736,47.54187l-48.37571,0l0,-53.917l26.94379,0l0,0.0044c1.17466,-0.05498 2.18837,0.84884 2.96489,2.91597c0.70593,1.96818 0.88382,4.5345 0.881,6.31356c0.00564,1.30405 -0.07624,2.17928 -0.07624,2.17928l-0.13837,1.4338l1.85235,0.0154c0.00847,0 4.28074,0.03958 8.47112,0.78067c4.0266,0.67732 7.17503,2.02755 7.46869,3.55591c0.0113,0.13634 0.01412,0.27269 0.0113,0.40023l0,36.31778l-0.00282,0z" id="svg_24"/>
  <path fill="#000000" stroke-width="1.5" stroke-opacity="null" d="m905.0426,441.2878c-4.92454,-3.72524 -10.23593,-6.70939 -14.59291,-7.11622c-0.23719,-0.02639 -0.48285,-0.04178 -0.74263,-0.04618l-28.67472,0c-0.45744,0 -0.90923,0.13854 -1.23113,0.39583c-0.31908,0.2507 -0.50827,0.60255 -0.50827,0.961l0,56.62627c0,0.35625 0.17789,0.6971 0.50827,0.95659c0.33037,0.2551 0.76522,0.39364 1.23113,0.39364l51.85451,0c0.45744,0 0.89511,-0.13634 1.22548,-0.39364c0.33038,-0.25729 0.51392,-0.59814 0.51392,-0.95659l0,-37.68121c-0.10166,-4.37397 -4.50099,-9.14377 -9.58365,-13.1395l0,0.00001zm-2.44816,1.91759c2.27309,1.72848 4.31745,3.68566 5.84225,5.57247c-1.3215,-0.40683 -2.70794,-0.70811 -4.00966,-0.94781c-2.86606,-0.50139 -5.67,-0.7037 -7.41223,-0.78507c0.00847,-0.29248 0.0113,-0.62234 0.0113,-0.98079c0,-1.911 -0.15531,-4.63565 -1.00524,-7.03705c-0.00847,-0.02199 -0.01412,-0.04398 -0.02541,-0.06597c2.15731,1.10834 4.50663,2.57952 6.59899,4.24422zm8.54736,47.54188l-48.37571,0l0,-53.91701l26.94379,0l0,0.0044c1.17466,-0.05498 2.18837,0.84885 2.96489,2.91598c0.70593,1.96817 0.88382,4.5345 0.881,6.31355c0.00564,1.30406 -0.07624,2.17929 -0.07624,2.17929l-0.13837,1.4338l1.85235,0.01539c0.00848,0 4.28074,0.03959 8.47112,0.78067c4.0266,0.67732 7.17503,2.02756 7.46869,3.55591c0.0113,0.13635 0.01412,0.27269 0.0113,0.40024l0,36.31778l-0.00282,0z" id="svg_25" stroke="#000"/>
  <text fill="#000000" stroke="#000" stroke-width="0" stroke-opacity="null" fill-opacity="null" x="872.333405" y="474.666762" id="svg_26" font-size="18" font-family="Helvetica, Arial, sans-serif" text-anchor="start" xml:space="preserve">.gz</text>
  <path fill="#000000" stroke-width="1.5" stroke-opacity="null" d="m806.20842,466.10995l13.16668,-29.42917l13.16667,29.42917l-6.58334,0l0,29.57079l-13.16667,0l0,-29.57079l-6.58334,0z" id="svg_29" transform="rotate(90 819.3751220703126,466.18075561523443) " stroke="#000"/>
  <text fill="#000000" stroke="#000" stroke-width="0" stroke-opacity="null" x="617.666684" y="248.666721" id="svg_30" font-size="16" font-family="Helvetica, Arial, sans-serif" text-anchor="start" xml:space="preserve">unix domain socketで受ける</text>
  <text fill="#000000" stroke="#000" stroke-width="0" stroke-opacity="null" x="607.666682" y="226.000048" id="svg_31" font-size="16" font-family="Helvetica, Arial, sans-serif" text-anchor="start" xml:space="preserve">3.proxy 転送</text>
  <path fill="#000000" stroke-width="1.5" stroke-opacity="null" d="m658.2084,467.46889l13.83334,-18.78811l13.83335,18.78811l-6.91668,0l0,18.87852l-13.83334,0l0,-18.87852l-6.91667,0z" id="svg_32" transform="rotate(90 672.0417480468751,467.5140991210938) " stroke="#000"/>
  <text fill="#000000" stroke-width="0" stroke-opacity="null" fill-opacity="null" x="631.666687" y="431.000084" id="svg_33" font-size="18" font-family="Helvetica, Arial, sans-serif" text-anchor="start" xml:space="preserve" stroke="#000">6.コンテンツの圧縮版の作成</text>
  <text fill="#000000" stroke="#000" stroke-width="0" stroke-opacity="null" fill-opacity="null" x="432.333312" y="329.333395" id="svg_34" font-size="18" font-family="Helvetica, Arial, sans-serif" text-anchor="start" xml:space="preserve">コンテンツの更新</text>
  <text fill="#000000" stroke="#000" stroke-width="0" stroke-opacity="null" fill-opacity="null" x="446.333313" y="363.000073" id="svg_35" font-size="18" font-family="Helvetica, Arial, sans-serif" text-anchor="start" xml:space="preserve">更新ファイル一覧の取得</text>
  <path fill="#000000" stroke="#000" stroke-width="1.5" stroke-opacity="null" d="m589.57962,321.19508c1.57574,2.79917 1.88337,3.64923 1.36237,3.76468c-1.01773,0.22551 -0.81322,1.51526 0.61127,3.85488c1.78646,2.93414 5.28559,4.73597 8.57235,4.41422c1.27573,-0.12489 2.71799,-0.38263 3.20504,-0.57276c0.48704,-0.19013 0.18817,0.16407 -0.66415,0.7871c-4.26382,3.11678 -9.52982,2.89967 -13.73095,-0.5661c-1.67507,-1.38187 -3.9797,-5.41931 -3.9797,-6.97197c0,-0.43986 -0.37996,-0.86606 -0.84434,-0.94712c-0.75946,-0.13255 -0.65747,-0.48157 1.01444,-3.4715c1.02233,-1.82827 1.98468,-3.45528 2.13856,-3.61556c0.15389,-0.16029 1.19569,1.33557 2.31511,3.32413l0,0zm13.54486,5.39644c-1.57574,-2.79916 -1.88336,-3.64923 -1.36237,-3.76467c1.01773,-0.22551 0.81322,-1.51526 -0.61127,-3.85488c-1.78646,-2.93414 -5.28559,-4.73597 -8.57234,-4.41422c-1.27573,0.12488 -2.718,0.38262 -3.20504,0.57276c-0.48705,0.19013 -0.18818,-0.16407 0.66415,-0.7871c4.26381,-3.11678 9.52982,-2.89967 13.73094,0.5661c1.67507,1.38186 3.9797,5.41931 3.9797,6.97196c0,0.43986 0.37996,0.86607 0.84434,0.94712c0.75946,0.13256 0.65747,0.48158 -1.01443,3.47151c-1.02233,1.82827 -1.98469,3.45527 -2.13857,3.61556c-0.15389,0.16028 -1.19568,-1.33558 -2.31511,-3.32413l0,-0.00001z" id="svg_36"/>
  <path fill="#000000" stroke="#000" stroke-width="1.5" stroke-opacity="null" d="m747.70923,263.95443c-4.92454,-3.72524 -10.23593,-6.70938 -14.5929,-7.11622c-0.23719,-0.02638 -0.48286,-0.04178 -0.74264,-0.04618l-28.67471,0c-0.45744,0 -0.90924,0.13855 -1.23114,0.39584c-0.31908,0.25069 -0.50827,0.60255 -0.50827,0.961l0,56.62626c0,0.35625 0.1779,0.69711 0.50827,0.9566c0.33037,0.25509 0.76522,0.39364 1.23114,0.39364l51.8545,0c0.45744,0 0.89512,-0.13635 1.22549,-0.39364c0.33037,-0.25729 0.51391,-0.59815 0.51391,-0.9566l0,-37.6812c-0.10165,-4.37397 -4.50098,-9.14377 -9.58365,-13.1395zm-2.44815,1.9176c2.27308,1.72847 4.31744,3.68565 5.84224,5.57246c-1.32149,-0.40683 -2.70793,-0.7081 -4.00966,-0.9478c-2.86606,-0.50139 -5.66999,-0.7037 -7.41222,-0.78507c0.00847,-0.29248 0.01129,-0.62234 0.01129,-0.98079c0,-1.911 -0.1553,-4.63566 -1.00523,-7.03705c-0.00848,-0.02199 -0.01412,-0.04398 -0.02542,-0.06597c2.15731,1.10833 4.50663,2.57952 6.599,4.24422zm8.54735,47.54187l-48.3757,0l0,-53.917l26.94379,0l0,0.0044c1.17466,-0.05498 2.18837,0.84884 2.96489,2.91598c0.70592,1.96817 0.88382,4.5345 0.88099,6.31355c0.00565,1.30405 -0.07624,2.17929 -0.07624,2.17929l-0.13836,1.4338l1.85235,0.01539c0.00847,0 4.28074,0.03958 8.47111,0.78067c4.0266,0.67732 7.17503,2.02755 7.4687,3.55591c0.0113,0.13635 0.01412,0.27269 0.0113,0.40023l0,36.31778l-0.00283,0z" id="svg_40"/>
  <path fill="#000000" stroke-width="1.5" stroke-opacity="null" d="m640.2084,324.13552l13.83334,-18.7881l13.83334,18.7881l-6.91667,0l0,18.87852l-13.83334,0l0,-18.87852l-6.91667,0z" id="svg_41" transform="rotate(90 654.0411987304689,324.1831665039063) " stroke="#000"/>
 </g>
</svg>