<svg width="1024" height="767.9999999999999" xmlns="http://www.w3.org/2000/svg">
 <!-- Created with Method Draw - http://github.com/duopixel/Method-Draw/ -->
 <g>
  <title>background</title>
  <rect fill="#fff" id="canvas_background" height="770" width="1026" y="-1" x="-1"/>
  <g display="none" overflow="visible" y="0" x="0" height="100%" width="100%" id="canvasGrid">
   <rect fill="url(#gridpattern)" stroke-width="0" y="0" x="0" height="100%" width="100%"/>
  </g>
 </g>
 <g>
  <title>Layer 1</title>
  <rect stroke="#000" id="svg_2" height="326.165463" width="176" y="78.833322" x="85.5" stroke-opacity="null" stroke-width="1.5" fill="none"/>
  <text xml:space="preserve" text-anchor="start" font-family="Helvetica, Arial, sans-serif" font-size="24" id="svg_3" y="102.166657" x="90.499991" stroke-opacity="null" stroke-width="0" stroke="#000" fill="#000000">GitHub</text>
  <rect id="svg_4" height="77" width="176" y="573.498734" x="94.999939" stroke-opacity="null" stroke-width="1.5" stroke="#000" fill="none"/>
  <text xml:space="preserve" text-anchor="start" font-family="Helvetica, Arial, sans-serif" font-size="24" id="svg_5" y="599.498677" x="99.999685" fill-opacity="null" stroke-opacity="null" stroke-width="0" stroke="#000" fill="#000000">Client</text>
  <rect stroke="#000" id="svg_6" height="489.666671" width="425.000004" y="75.500041" x="504.500255" stroke-opacity="null" stroke-width="1.5" fill="none"/>
  <text xml:space="preserve" text-anchor="start" font-family="Helvetica, Arial, sans-serif" font-size="24" id="svg_7" y="98.833325" x="510.166626" fill-opacity="null" stroke-opacity="null" stroke-width="0" stroke="#000" fill="#000000">www.sfpgmr.net</text>
  <path stroke="#000" id="svg_8" d="m150.849967,486.043918l20.500011,-56.364378l20.500011,56.364378l-10.250006,0l0,56.635593l-20.500009,0l0,-56.635593l-10.250006,0z" stroke-opacity="null" stroke-width="1.5" fill="#000000"/>
  <text xml:space="preserve" text-anchor="start" font-family="Helvetica, Arial, sans-serif" font-size="24" id="svg_9" y="514.998726" x="201.499973" stroke-opacity="null" stroke-width="0" stroke="#000" fill="#000000">1.push</text>
  <path stroke="#000" transform="rotate(90 416.70834350585943,168.84736633300784) " id="svg_10" d="m402.875018,168.802172l13.833342,-18.788107l13.833342,18.788107l-6.916674,0l0,18.878517l-13.833342,0l0,-18.878517l-6.916668,0z" stroke-opacity="null" stroke-width="1.5" fill="#000000"/>
  <text stroke="#000" xml:space="preserve" text-anchor="start" font-family="Helvetica, Arial, sans-serif" font-size="18" id="svg_11" y="173.500006" x="282.999983" stroke-opacity="null" stroke-width="0" fill="#000000">2. webhook</text>
  <path stroke="#000" transform="rotate(-90 331.7083129882813,280.847412109375) " id="svg_12" d="m321.874966,280.791006l9.833341,-23.443572l9.833341,23.443572l-4.916673,0l0,23.556385l-9.833341,0l0,-23.556385l-4.916668,0z" stroke-opacity="null" stroke-width="1.5" fill="#000000"/>
  <text stroke="#000" xml:space="preserve" text-anchor="start" font-family="Helvetica, Arial, sans-serif" font-size="18" id="svg_13" y="290.500016" x="361.697912" stroke-opacity="null" stroke-width="0" fill="#000000">4. pull</text>
  <path id="svg_14" d="m211.096824,227.933874c-3.68184,-0.646345 -7.513896,-1.07191 -10.625526,-1.1871l-0.54875,-0.019198c0.125691,-0.287976 0.220726,-0.483159 0.251383,-0.511957c0.067444,-0.057595 0.122626,-0.300775 0.128757,-0.537555c0,-0.131189 0.055182,-0.556753 0.14102,-1.119906c0.843052,0.031997 1.962013,0.057595 3.18214,0.067194c4.711897,0.038397 9.641454,0.435163 13.02286,1.059111c2.014129,0.371169 2.679374,0.35837 1.192536,-0.019198c-1.505232,-0.380768 -5.968811,-0.940721 -9.524959,-1.1839c-2.388138,-0.169586 -5.812463,-0.23358 -7.829658,-0.198383c0.058247,-0.364769 0.125691,-0.771135 0.196201,-1.1871c0.285105,-1.609464 0.38014,-3.228528 0.386271,-6.450656c0.006131,-4.997978 -0.251383,-6.373862 -1.811796,-9.679184c-0.634589,-1.350286 -1.351949,-2.49579 -2.219527,-3.532502c0.757214,-2.332603 0.73882,-5.945099 -0.045985,-9.112831c-0.646851,-2.598181 -0.873709,-2.764567 -3.130024,-2.265409c-1.912963,0.425564 -3.445785,1.004715 -5.410864,2.038228c-0.92889,0.489559 -2.21033,1.251094 -3.139221,1.849444c-2.42186,-0.889525 -4.926492,-1.478275 -7.599734,-1.795049c-2.71003,-0.319973 -9.353283,-0.140788 -11.710764,0.313574c-2.305365,0.444762 -4.380807,0.988717 -6.260047,1.635062c-0.938087,-0.604749 -2.299234,-1.42068 -3.271043,-1.932637c-1.974275,-1.036713 -3.507098,-1.612664 -5.426192,-2.038228c-2.250184,-0.502358 -2.483173,-0.332772 -3.126958,2.265409c-0.797068,3.209329 -0.803199,6.88262 -0.015328,9.208823c0.091969,0.265578 0.147151,0.454362 0.16861,0.601549c-3.194402,4.198046 -4.236722,8.89525 -3.543886,15.451497c0.180873,1.708656 0.459847,3.276524 0.849184,4.713202c-2.038654,-0.012799 -4.938754,0.063995 -7.03259,0.204783c-3.56228,0.246379 -8.025859,0.799933 -9.531091,1.1807c-1.483772,0.377568 -0.824659,0.390367 1.192536,0.022398c3.381407,-0.620748 8.31403,-1.023914 13.02286,-1.059111c0.889037,-0.0032 1.719827,-0.022398 2.434122,-0.041596c0.214595,0.758336 0.459847,1.481475 0.73882,2.169417l-0.02146,0.0032c-3.11163,0.111991 -6.940621,0.537555 -10.62246,1.1839c-2.762146,0.483159 -6.839454,1.449478 -7.314629,1.727854c-0.4997,0.291175 -0.091969,0.227181 2.047851,-0.339171c3.902566,-1.030313 8.976209,-1.820646 15.260781,-2.371l0.702033,-0.063995c1.348884,3.270124 3.427391,5.765914 6.364279,7.71135c1.796468,1.193499 4.675109,2.418996 6.125159,2.61098c0.398534,0.051196 1.557348,0.300775 2.575142,0.550354c1.02086,0.249579 3.016595,0.623947 4.432923,0.838329l0.033722,0c-0.027591,0.019198 -0.052116,0.031997 -0.076641,0.051196c-1.716761,0.931121 -2.832656,2.380599 -3.583739,4.662007c-0.337221,0.105591 -0.757214,0.249579 -1.21093,0.412765c-1.621726,0.575951 -2.253249,0.694341 -3.896435,0.70714c-1.704499,0.012799 -2.109164,-0.063995 -3.126958,-0.563153c-1.480707,-0.719939 -2.860247,-2.044628 -3.77994,-3.625294c-1.535888,-2.642977 -4.190737,-4.511619 -6.404133,-4.511619c-1.891503,0 -2.250184,0.799933 -0.882906,1.967834c2.060114,1.756652 3.599067,3.548501 4.23059,4.917985c0.355615,0.767935 0.9013,1.955035 1.217061,2.636578c0.334155,0.726339 1.048451,1.711856 1.729024,2.393398c1.600267,1.593466 3.145352,2.355001 5.450717,2.713371c1.545085,0.23678 1.925225,0.23678 3.749284,-0.006399c0.87984,-0.111991 1.621726,-0.243179 2.286971,-0.406366c0,0.780734 0,1.679858 0,2.735769c0,5.650723 -0.064379,7.46817 -0.278974,7.999325c-0.404665,1.011115 -1.312096,2.051027 -2.195002,2.518188c-0.87984,0.467161 -1.152683,0.982317 -0.78174,1.455877c0.205398,0.255978 0.600866,0.300775 1.928291,0.211182c2.51996,-0.163186 4.3011,-1.135904 5.208531,-2.85096c0.291236,-0.550354 0.35868,-1.65746 0.45065,-7.416974c0.098101,-6.249073 0.14102,-6.850622 0.530357,-7.743347c0.236055,-0.531155 0.576341,-1.107107 0.766411,-1.263893c0.318827,-0.275177 0.340287,0.268777 0.340287,7.743347c-0.003066,8.248904 -0.082772,9.24402 -0.873709,10.831086c-0.177807,0.36157 -0.515028,0.83193 -0.751083,1.055911c-0.413862,0.393567 -0.588604,1.401482 -0.300433,1.705456c0.475175,0.492758 2.857181,-0.281576 4.157015,-1.350286c2.213396,-1.830246 2.477041,-3.343718 2.495435,-14.273996l0.009197,-6.412259l0.671376,0.067194l0.671376,0.063995l0.110363,8.386493c0.125691,9.442404 0.144085,9.579992 1.683039,11.403838c0.873709,1.030313 1.753549,1.599865 3.185205,2.044628c1.916028,0.601549 2.492369,-0.326372 1.204799,-1.935837c-1.401,-1.750252 -1.468444,-2.418996 -1.391803,-12.779722c0.052116,-6.64264 0.052116,-6.64264 0.462912,-6.255472c0.864512,0.819131 1.030057,2.163018 1.030057,8.392892c0,7.736947 0.21153,8.472885 2.82959,9.823172c1.223192,0.623947 1.566545,0.700741 3.133089,0.70714c1.667711,0.006399 1.768877,-0.019198 1.83019,-0.47356c0.052116,-0.367969 -0.153282,-0.617548 -0.931956,-1.113506c-1.02086,-0.655945 -1.729024,-1.494274 -2.173542,-2.550185c-0.16861,-0.406366 -0.282039,-3.068541 -0.35868,-8.549679c-0.110363,-7.656954 -0.134888,-8.005725 -0.59167,-9.205624c-0.616195,-1.612664 -1.557348,-2.886157 -2.749884,-3.730885c-0.30963,-0.211182 -0.61926,-0.387167 -1.02086,-0.518356c0.493569,-0.051196 0.971809,-0.105591 1.434722,-0.175985c4.819194,-0.668744 7.366745,-1.225497 9.41153,-2.051027c4.325625,-1.737453 7.250251,-4.62361 8.835189,-8.716065c0.14102,-0.364769 0.282039,-0.71034 0.4016,-0.988717l1.220127,0.105591c6.287638,0.553553 11.361281,1.343887 15.263847,2.377399c2.13982,0.566352 2.547551,0.633547 2.047851,0.335972c-0.465978,-0.271977 -4.543286,-1.235096 -7.302367,-1.718255zm-18.43679,-0.099192c-0.714295,1.638262 -2.706965,3.743684 -4.316428,4.569215c-1.588004,0.819131 -4.077308,1.443078 -6.897701,1.740653c-1.928291,0.204783 -12.682574,0.265578 -14.457582,0.083193c-5.876842,-0.601549 -9.169345,-1.78225 -11.597335,-4.14685c-2.299234,-2.246211 -3.37221,-5.295553 -3.185205,-9.048837c0.11956,-2.348602 0.662179,-3.823678 2.081573,-5.615526c1.290637,-1.631862 2.648717,-2.639777 4.248984,-3.151734c1.339687,-0.428764 5.450717,-0.467161 10.978075,-0.095992c2.443319,0.163186 4.463579,0.163186 6.903833,0c5.781807,-0.380768 9.641454,-0.339171 11.066979,0.12159c2.240987,0.723139 4.282706,2.668575 5.508964,5.260356c0.551816,1.158302 0.659114,1.651061 0.73882,3.43971c0.110363,2.463792 -0.297368,5.081171 -1.072976,6.844223zm-29.154285,-10.578308c-3.289437,-0.601549 -5.168678,5.276355 -2.645652,8.277702c1.198667,1.42388 2.262446,1.65746 3.592936,0.793533c1.232389,-0.803132 1.9007,-2.303806 1.9007,-4.249242c0,-2.594981 -1.131223,-4.50202 -2.847984,-4.821993zm19.966547,0.35197c-3.289437,-0.601549 -5.171743,5.269956 -2.648717,8.274502c1.201733,1.42388 2.262446,1.66066 3.596002,0.790333c1.229324,-0.799933 1.9007,-2.303806 1.9007,-4.249242c0,-2.585382 -1.131223,-4.498821 -2.847984,-4.815594zm-8.847452,11.557425c-0.07051,0.23678 -0.413862,0.58875 -0.76028,0.777534c-0.876775,0.47036 -1.508297,0.307174 -2.434122,-0.572752c-0.573276,-0.540754 -0.833855,-0.82553 -1.008597,-0.259178c-0.162479,0.524756 0.858381,1.577467 1.646251,1.90064c0.723492,0.300775 1.241586,0.310374 2.026391,-0.031997c0.778674,-0.339171 1.459247,-1.251094 1.459247,-1.843045c0,-0.550354 -0.757214,-0.524756 -0.92889,0.028798zm-0.971809,-1.839845c0.4997,-0.460761 0.613129,-1.407881 0.134888,-1.910239s-1.45005,-0.425564 -1.83019,0.137588c-0.441453,0.659144 -0.205398,1.161502 0.110363,1.695857c0.490503,0.396767 1.149617,0.47676 1.584939,0.076794z" stroke-opacity="null" stroke-width="1.5" stroke="#000" fill="#000000"/>
  <rect stroke="#000" id="svg_15" height="56.834316" width="153.666677" y="138.666665" x="460.999978" stroke-opacity="null" stroke-width="1.5" fill="#ffffff"/>
  <text xml:space="preserve" text-anchor="start" font-family="Helvetica, Arial, sans-serif" font-size="18" id="svg_17" y="156.499997" x="469.166643" fill-opacity="null" stroke-opacity="null" stroke-width="0" stroke="#000" fill="#000000">nginx</text>
  <rect stroke="#000" id="svg_18" height="228.000024" width="161.000002" y="250.998317" x="462.003172" stroke-opacity="null" stroke-width="1.5" fill="#ffffff"/>
  <text stroke="#000" xml:space="preserve" text-anchor="start" font-family="Helvetica, Arial, sans-serif" font-size="18" id="svg_19" y="268.331056" x="469.169783" fill-opacity="null" stroke-opacity="null" stroke-width="0" fill="#000000">node</text>
  <path stroke="#000" transform="rotate(180 579.872802734375,235.42965698242188) " id="svg_20" d="m571.122579,235.349248l8.750168,-33.419885l8.750168,33.419885l-4.375086,0l0,33.580704l-8.750168,0l0,-33.580704l-4.375082,0z" stroke-opacity="null" stroke-width="1.5" fill="#000000"/>
  <text stroke="#000" xml:space="preserve" text-anchor="start" font-family="Helvetica, Arial, sans-serif" font-size="18" id="svg_22" y="330.500025" x="361.692703" stroke-opacity="null" stroke-width="0" fill="#000000">5. git log</text>
  <path stroke="#000" transform="rotate(-90 331.7083129882813,324.847412109375) " id="svg_23" d="m321.874966,324.791016l9.833341,-23.443572l9.833341,23.443572l-4.916673,0l0,23.556385l-9.833341,0l0,-23.556385l-4.916668,0z" stroke-opacity="null" stroke-width="1.5" fill="#000000"/>
  <path id="svg_24" d="m765.709235,421.287799c-4.92454,-3.725239 -10.235928,-6.709388 -14.592904,-7.116217c-0.237191,-0.026389 -0.482853,-0.041782 -0.742634,-0.046181l-28.674717,0c-0.45744,0 -0.909233,0.138542 -1.231135,0.395834c-0.319079,0.250695 -0.508267,0.602547 -0.508267,0.960997l0,56.626267c0,0.356251 0.177893,0.697108 0.508267,0.956599c0.330373,0.255093 0.765224,0.393635 1.231135,0.393635l51.854506,0c0.45744,0 0.895114,-0.136343 1.225488,-0.393635c0.330373,-0.257292 0.513914,-0.598149 0.513914,-0.956599l0,-37.681207c-0.101653,-4.373967 -4.500985,-9.143768 -9.583652,-13.139493zm-2.448152,1.917596c2.273082,1.728476 4.317444,3.685655 5.842244,5.572464c-1.321494,-0.406829 -2.707932,-0.708103 -4.00966,-0.947803c-2.86606,-0.50139 -5.669998,-0.703705 -7.412224,-0.785071c0.008471,-0.292477 0.011295,-0.622339 0.011295,-0.980789c0,-1.910999 -0.155304,-4.635657 -1.005239,-7.037051c-0.008471,-0.021991 -0.014119,-0.043982 -0.025413,-0.065972c2.15731,1.108335 4.506632,2.579519 6.598997,4.244221zm8.547353,47.541874l-48.375702,0l0,-53.917002l26.943786,0l0,0.004398c1.174661,-0.054977 2.188371,0.848844 2.96489,2.915978c0.705926,1.968175 0.883819,4.5345 0.880996,6.313554c0.005647,1.304053 -0.07624,2.179287 -0.07624,2.179287l-0.138362,1.433799l1.85235,0.015394c0.008471,0 4.280736,0.039583 8.471113,0.780673c4.026602,0.677316 7.175033,2.02755 7.468698,3.55591c0.011295,0.136343 0.014119,0.272686 0.011295,0.400232l0,36.317779l-0.002824,0z" stroke-opacity="null" stroke-width="1.5" stroke="#000" fill="#000000"/>
  <path stroke="#000" id="svg_25" d="m905.042595,417.287795c-4.92454,-3.725239 -10.235928,-6.709388 -14.592904,-7.116218c-0.237191,-0.026388 -0.482853,-0.041782 -0.742634,-0.04618l-28.674717,0c-0.45744,0 -0.909233,0.138542 -1.231135,0.395834c-0.319079,0.250695 -0.508267,0.602547 -0.508267,0.960997l0,56.626267c0,0.356251 0.177894,0.697108 0.508267,0.956599c0.330373,0.255093 0.765224,0.393635 1.231135,0.393635l51.854506,0c0.45744,0 0.895114,-0.136343 1.225487,-0.393635c0.330374,-0.257292 0.513915,-0.598149 0.513915,-0.956599l0,-37.681207c-0.101654,-4.373967 -4.500985,-9.143768 -9.583653,-13.139493zm-2.448151,1.917596c2.273082,1.728476 4.317443,3.685655 5.842244,5.572465c-1.321494,-0.40683 -2.707933,-0.708104 -4.00966,-0.947803c-2.86606,-0.50139 -5.669999,-0.703705 -7.412224,-0.785071c0.008471,-0.292477 0.011295,-0.622339 0.011295,-0.980789c0,-1.910999 -0.155304,-4.635657 -1.005239,-7.037051c-0.008471,-0.02199 -0.014119,-0.043981 -0.025413,-0.065972c2.15731,1.108336 4.506632,2.579519 6.598997,4.244221zm8.547352,47.541875l-48.375702,0l0,-53.917003l26.943787,0l0,0.004398c1.174661,-0.054977 2.188371,0.848845 2.964889,2.915978c0.705926,1.968175 0.88382,4.5345 0.880996,6.313554c0.005648,1.304053 -0.07624,2.179287 -0.07624,2.179287l-0.138361,1.433799l1.85235,0.015393c0.008471,0 4.280735,0.039584 8.471113,0.780673c4.026602,0.677316 7.175032,2.02755 7.468697,3.55591c0.011295,0.136343 0.014119,0.272685 0.011295,0.400232l0,36.317779l-0.002824,0z" stroke-opacity="null" stroke-width="1.5" fill="#000000"/>
  <text xml:space="preserve" text-anchor="start" font-family="Helvetica, Arial, sans-serif" font-size="18" id="svg_26" y="450.666762" x="872.333405" fill-opacity="null" stroke-opacity="null" stroke-width="0" stroke="#000" fill="#000000">.gz</text>
  <text stroke="#000" xml:space="preserve" text-anchor="start" font-family="Helvetica, Arial, sans-serif" font-size="18" id="svg_27" y="356.500029" x="381.020833" stroke-opacity="null" stroke-width="0" fill="#000000">git diff</text>
  <path stroke="#000" transform="rotate(90 819.3759155273439,442.18075561523443) " id="svg_29" d="m806.208422,442.10995l13.166675,-29.429173l13.166675,29.429173l-6.583341,0l0,29.570788l-13.166675,0l0,-29.570788l-6.583334,0z" stroke-opacity="null" stroke-width="1.5" fill="#000000"/>
  <text xml:space="preserve" text-anchor="start" font-family="Helvetica, Arial, sans-serif" font-size="16" id="svg_30" y="248.666721" x="617.666684" stroke-opacity="null" stroke-width="0" stroke="#000" fill="#000000">unix domain socketで受ける</text>
  <text xml:space="preserve" text-anchor="start" font-family="Helvetica, Arial, sans-serif" font-size="16" id="svg_31" y="226.000048" x="607.666682" stroke-opacity="null" stroke-width="0" stroke="#000" fill="#000000">3.proxy 転送</text>
  <path stroke="#000" transform="rotate(90 672.0417480468751,443.5140991210938) " id="svg_32" d="m658.208402,443.46889l13.833341,-18.788107l13.833342,18.788107l-6.916674,0l0,18.878517l-13.833342,0l0,-18.878517l-6.916667,0z" stroke-opacity="null" stroke-width="1.5" fill="#000000"/>
  <text style="cursor: move;" stroke="#000" xml:space="preserve" text-anchor="start" font-family="Helvetica, Arial, sans-serif" font-size="18" id="svg_33" y="396.000084" x="631.666687" fill-opacity="null" stroke-opacity="null" stroke-width="0" fill="#000000">6.コンテンツの圧縮版の作成</text>
  <text xml:space="preserve" text-anchor="start" font-family="Helvetica, Arial, sans-serif" font-size="18" id="svg_34" y="291.333395" x="432.333312" fill-opacity="null" stroke-opacity="null" stroke-width="0" stroke="#000" fill="#000000">コンテンツの更新</text>
  <text xml:space="preserve" text-anchor="start" font-family="Helvetica, Arial, sans-serif" font-size="18" id="svg_35" y="348.000073" x="446.333313" fill-opacity="null" stroke-opacity="null" stroke-width="0" stroke="#000" fill="#000000">更新ファイル一覧の取得</text>
  <path id="svg_36" d="m589.579623,283.195082c1.575742,2.799164 1.883366,3.649231 1.362369,3.764673c-1.017733,0.225514 -0.813217,1.51526 0.61127,3.854881c1.786459,2.934142 5.285586,4.735973 8.572344,4.414221c1.27573,-0.124887 2.717999,-0.382622 3.205042,-0.572753c0.487041,-0.190133 0.188174,0.164064 -0.664151,0.787099c-4.263817,3.116776 -9.529821,2.899667 -13.730947,-0.566101c-1.675068,-1.381871 -3.979701,-5.419315 -3.979701,-6.971972c0,-0.439857 -0.379955,-0.866062 -0.844343,-0.947116c-0.759453,-0.132556 -0.657462,-0.481579 1.014439,-3.471504c1.022331,-1.828274 1.984686,-3.455278 2.138569,-3.615562c0.153885,-0.160284 1.195683,1.335575 2.315109,3.324133l-0.000001,0.000001zm13.544859,5.396443c-1.575743,-2.799163 -1.883366,-3.649233 -1.362372,-3.764673c1.017733,-0.22551 0.813218,-1.515259 -0.611267,-3.854881c-1.78646,-2.934143 -5.28559,-4.735974 -8.572347,-4.414222c-1.27573,0.124885 -2.717996,0.382625 -3.205039,0.572757c-0.487044,0.190129 -0.188175,-0.164066 0.664149,-0.787101c4.263818,-3.116777 9.529821,-2.89967 13.730948,0.566102c1.675069,1.381867 3.9797,5.419313 3.9797,6.971967c0,0.43986 0.379958,0.866062 0.844341,0.947116c0.759456,0.132558 0.657463,0.481579 -1.014435,3.471506c-1.02233,1.828272 -1.984688,3.455276 -2.138569,3.615562c-0.153886,0.160284 -1.195683,-1.335573 -2.315109,-3.324132l0,-0.000001z" stroke-opacity="null" stroke-width="1.5" stroke="#000" fill="#000000"/>
  <path id="svg_40" d="m747.709231,263.954433c-4.924541,-3.725239 -10.235929,-6.709388 -14.592904,-7.116218c-0.237191,-0.026389 -0.482854,-0.041782 -0.742635,-0.04618l-28.674717,0c-0.45744,0 -0.909232,0.138542 -1.231135,0.395834c-0.319078,0.250695 -0.508266,0.602547 -0.508266,0.960997l0,56.626267c0,0.356251 0.177893,0.697108 0.508266,0.956599c0.330374,0.255093 0.765224,0.393635 1.231135,0.393635l51.854506,0c0.45744,0 0.895114,-0.136343 1.225488,-0.393635c0.330373,-0.257292 0.513914,-0.598149 0.513914,-0.956599l0,-37.681207c-0.101653,-4.373967 -4.500985,-9.143768 -9.583652,-13.139493zm-2.448152,1.917596c2.273082,1.728476 4.317444,3.685655 5.842244,5.572465c-1.321494,-0.40683 -2.707932,-0.708104 -4.00966,-0.947803c-2.86606,-0.50139 -5.669998,-0.703705 -7.412224,-0.785071c0.008471,-0.292477 0.011295,-0.622339 0.011295,-0.980789c0,-1.910999 -0.155304,-4.635657 -1.005239,-7.037051c-0.008471,-0.02199 -0.014118,-0.043981 -0.025413,-0.065972c2.15731,1.108336 4.506632,2.579519 6.598997,4.244221zm8.547353,47.541875l-48.375702,0l0,-53.917003l26.943786,0l0,0.004398c1.174661,-0.054977 2.188371,0.848845 2.96489,2.915978c0.705926,1.968175 0.883819,4.5345 0.880995,6.313554c0.005648,1.304053 -0.07624,2.179287 -0.07624,2.179287l-0.138361,1.433799l1.85235,0.015393c0.008471,0 4.280736,0.039584 8.471113,0.780673c4.026602,0.677316 7.175032,2.02755 7.468698,3.55591c0.011295,0.136343 0.014118,0.272685 0.011295,0.400232l0,36.317779l-0.002824,0z" stroke-opacity="null" stroke-width="1.5" stroke="#000" fill="#000000"/>
  <path stroke="#000" transform="rotate(90 654.0411987304689,286.1831665039063) " id="svg_41" d="m640.208398,286.135524l13.833341,-18.788107l13.833342,18.788107l-6.916674,0l0,18.878517l-13.833342,0l0,-18.878517l-6.916667,0z" stroke-opacity="null" stroke-width="1.5" fill="#000000"/>
 </g>
</svg>