<svg width="800" height="640" xmlns="http://www.w3.org/2000/svg">
 <!-- Created with Method Draw - http://github.com/duopixel/Method-Draw/ -->
 <g>
  <title>background</title>
  <rect fill="#fff" id="canvas_background" height="642" width="802" y="-1" x="-1"/>
  <g display="none" overflow="visible" y="0" x="0" height="100%" width="100%" id="canvasGrid">
   <rect fill="url(#gridpattern)" stroke-width="0" y="0" x="0" height="100%" width="100%"/>
  </g>
 </g>
 <g>
  <title>Layer 1</title>
  <rect stroke="#000" id="svg_2" height="195.000005" width="176" y="119.499995" x="85.5" stroke-opacity="null" stroke-width="1.5" fill="none"/>
  <text xml:space="preserve" text-anchor="start" font-family="Helvetica, Arial, sans-serif" font-size="24" id="svg_3" y="153.5" x="136.5" stroke-opacity="null" stroke-width="0" stroke="#000" fill="#000000">GitHub</text>
  <rect id="svg_4" height="77" width="176" y="479.5" x="90.5" stroke-opacity="null" stroke-width="1.5" stroke="#000" fill="none"/>
  <text xml:space="preserve" text-anchor="start" font-family="Helvetica, Arial, sans-serif" font-size="24" id="svg_5" y="515.5" x="125.5" fill-opacity="null" stroke-opacity="null" stroke-width="0" stroke="#000" fill="#000000">Client</text>
  <rect stroke="#000" id="svg_6" height="195.000005" width="176" y="114.5" x="539.5" stroke-opacity="null" stroke-width="1.5" fill="none"/>
  <text xml:space="preserve" text-anchor="start" font-family="Helvetica, Arial, sans-serif" font-size="18" id="svg_7" y="143.5" x="564.5" fill-opacity="null" stroke-opacity="null" stroke-width="0" stroke="#000" fill="#000000">www.sfpgmr.net</text>
  <path stroke="#000" id="svg_8" d="m149.349987,399.045093l20.500011,-56.364378l20.500011,56.364378l-10.250006,0l0,56.635593l-20.500009,0l0,-56.635593l-10.250006,0z" stroke-opacity="null" stroke-width="1.5" fill="#000000"/>
  <text xml:space="preserve" text-anchor="start" font-family="Helvetica, Arial, sans-serif" font-size="24" id="svg_9" y="420.5" x="199.5" stroke-opacity="null" stroke-width="0" stroke="#000" fill="#000000">1.push</text>
  <path transform="rotate(90 416.375,156.18070983886724) " stroke="#000" id="svg_10" d="m395.87499,156.04509l20.50001,-56.36437l20.50001,56.36437l-10.25001,0l0,56.6356l-20.50001,0l0,-56.6356l-10.25,0z" stroke-opacity="null" stroke-width="1.5" fill="#000000"/>
  <text stroke="#000" xml:space="preserve" text-anchor="start" font-family="Helvetica, Arial, sans-serif" font-size="24" id="svg_11" y="127.5" x="355" stroke-opacity="null" stroke-width="0" fill="#000000">2. webhook</text>
  <path transform="rotate(-90 416.375,248.18070983886716) " stroke="#000" id="svg_12" d="m395.87499,248.04509l20.50001,-56.36437l20.50001,56.36437l-10.25001,0l0,56.6356l-20.50001,0l0,-56.6356l-10.25,0z" stroke-opacity="null" stroke-width="1.5" fill="#000000"/>
  <text stroke="#000" xml:space="preserve" text-anchor="start" font-family="Helvetica, Arial, sans-serif" font-size="24" id="svg_13" y="216.5" x="384.359375" stroke-opacity="null" stroke-width="0" fill="#000000">3. pull</text>
  <path id="svg_14" d="m211.096824,227.933874c-3.68184,-0.646345 -7.513896,-1.07191 -10.625526,-1.1871l-0.54875,-0.019198c0.125691,-0.287976 0.220726,-0.483159 0.251383,-0.511957c0.067444,-0.057595 0.122626,-0.300775 0.128757,-0.537555c0,-0.131189 0.055182,-0.556753 0.14102,-1.119906c0.843052,0.031997 1.962013,0.057595 3.18214,0.067194c4.711897,0.038397 9.641454,0.435163 13.02286,1.059111c2.014129,0.371169 2.679374,0.35837 1.192536,-0.019198c-1.505232,-0.380768 -5.968811,-0.940721 -9.524959,-1.1839c-2.388138,-0.169586 -5.812463,-0.23358 -7.829658,-0.198383c0.058247,-0.364769 0.125691,-0.771135 0.196201,-1.1871c0.285105,-1.609464 0.38014,-3.228528 0.386271,-6.450656c0.006131,-4.997978 -0.251383,-6.373862 -1.811796,-9.679184c-0.634589,-1.350286 -1.351949,-2.49579 -2.219527,-3.532502c0.757214,-2.332603 0.73882,-5.945099 -0.045985,-9.112831c-0.646851,-2.598181 -0.873709,-2.764567 -3.130024,-2.265409c-1.912963,0.425564 -3.445785,1.004715 -5.410864,2.038228c-0.92889,0.489559 -2.21033,1.251094 -3.139221,1.849444c-2.42186,-0.889525 -4.926492,-1.478275 -7.599734,-1.795049c-2.71003,-0.319973 -9.353283,-0.140788 -11.710764,0.313574c-2.305365,0.444762 -4.380807,0.988717 -6.260047,1.635062c-0.938087,-0.604749 -2.299234,-1.42068 -3.271043,-1.932637c-1.974275,-1.036713 -3.507098,-1.612664 -5.426192,-2.038228c-2.250184,-0.502358 -2.483173,-0.332772 -3.126958,2.265409c-0.797068,3.209329 -0.803199,6.88262 -0.015328,9.208823c0.091969,0.265578 0.147151,0.454362 0.16861,0.601549c-3.194402,4.198046 -4.236722,8.89525 -3.543886,15.451497c0.180873,1.708656 0.459847,3.276524 0.849184,4.713202c-2.038654,-0.012799 -4.938754,0.063995 -7.03259,0.204783c-3.56228,0.246379 -8.025859,0.799933 -9.531091,1.1807c-1.483772,0.377568 -0.824659,0.390367 1.192536,0.022398c3.381407,-0.620748 8.31403,-1.023914 13.02286,-1.059111c0.889037,-0.0032 1.719827,-0.022398 2.434122,-0.041596c0.214595,0.758336 0.459847,1.481475 0.73882,2.169417l-0.02146,0.0032c-3.11163,0.111991 -6.940621,0.537555 -10.62246,1.1839c-2.762146,0.483159 -6.839454,1.449478 -7.314629,1.727854c-0.4997,0.291175 -0.091969,0.227181 2.047851,-0.339171c3.902566,-1.030313 8.976209,-1.820646 15.260781,-2.371l0.702033,-0.063995c1.348884,3.270124 3.427391,5.765914 6.364279,7.71135c1.796468,1.193499 4.675109,2.418996 6.125159,2.61098c0.398534,0.051196 1.557348,0.300775 2.575142,0.550354c1.02086,0.249579 3.016595,0.623947 4.432923,0.838329l0.033722,0c-0.027591,0.019198 -0.052116,0.031997 -0.076641,0.051196c-1.716761,0.931121 -2.832656,2.380599 -3.583739,4.662007c-0.337221,0.105591 -0.757214,0.249579 -1.21093,0.412765c-1.621726,0.575951 -2.253249,0.694341 -3.896435,0.70714c-1.704499,0.012799 -2.109164,-0.063995 -3.126958,-0.563153c-1.480707,-0.719939 -2.860247,-2.044628 -3.77994,-3.625294c-1.535888,-2.642977 -4.190737,-4.511619 -6.404133,-4.511619c-1.891503,0 -2.250184,0.799933 -0.882906,1.967834c2.060114,1.756652 3.599067,3.548501 4.23059,4.917985c0.355615,0.767935 0.9013,1.955035 1.217061,2.636578c0.334155,0.726339 1.048451,1.711856 1.729024,2.393398c1.600267,1.593466 3.145352,2.355001 5.450717,2.713371c1.545085,0.23678 1.925225,0.23678 3.749284,-0.006399c0.87984,-0.111991 1.621726,-0.243179 2.286971,-0.406366c0,0.780734 0,1.679858 0,2.735769c0,5.650723 -0.064379,7.46817 -0.278974,7.999325c-0.404665,1.011115 -1.312096,2.051027 -2.195002,2.518188c-0.87984,0.467161 -1.152683,0.982317 -0.78174,1.455877c0.205398,0.255978 0.600866,0.300775 1.928291,0.211182c2.51996,-0.163186 4.3011,-1.135904 5.208531,-2.85096c0.291236,-0.550354 0.35868,-1.65746 0.45065,-7.416974c0.098101,-6.249073 0.14102,-6.850622 0.530357,-7.743347c0.236055,-0.531155 0.576341,-1.107107 0.766411,-1.263893c0.318827,-0.275177 0.340287,0.268777 0.340287,7.743347c-0.003066,8.248904 -0.082772,9.24402 -0.873709,10.831086c-0.177807,0.36157 -0.515028,0.83193 -0.751083,1.055911c-0.413862,0.393567 -0.588604,1.401482 -0.300433,1.705456c0.475175,0.492758 2.857181,-0.281576 4.157015,-1.350286c2.213396,-1.830246 2.477041,-3.343718 2.495435,-14.273996l0.009197,-6.412259l0.671376,0.067194l0.671376,0.063995l0.110363,8.386493c0.125691,9.442404 0.144085,9.579992 1.683039,11.403838c0.873709,1.030313 1.753549,1.599865 3.185205,2.044628c1.916028,0.601549 2.492369,-0.326372 1.204799,-1.935837c-1.401,-1.750252 -1.468444,-2.418996 -1.391803,-12.779722c0.052116,-6.64264 0.052116,-6.64264 0.462912,-6.255472c0.864512,0.819131 1.030057,2.163018 1.030057,8.392892c0,7.736947 0.21153,8.472885 2.82959,9.823172c1.223192,0.623947 1.566545,0.700741 3.133089,0.70714c1.667711,0.006399 1.768877,-0.019198 1.83019,-0.47356c0.052116,-0.367969 -0.153282,-0.617548 -0.931956,-1.113506c-1.02086,-0.655945 -1.729024,-1.494274 -2.173542,-2.550185c-0.16861,-0.406366 -0.282039,-3.068541 -0.35868,-8.549679c-0.110363,-7.656954 -0.134888,-8.005725 -0.59167,-9.205624c-0.616195,-1.612664 -1.557348,-2.886157 -2.749884,-3.730885c-0.30963,-0.211182 -0.61926,-0.387167 -1.02086,-0.518356c0.493569,-0.051196 0.971809,-0.105591 1.434722,-0.175985c4.819194,-0.668744 7.366745,-1.225497 9.41153,-2.051027c4.325625,-1.737453 7.250251,-4.62361 8.835189,-8.716065c0.14102,-0.364769 0.282039,-0.71034 0.4016,-0.988717l1.220127,0.105591c6.287638,0.553553 11.361281,1.343887 15.263847,2.377399c2.13982,0.566352 2.547551,0.633547 2.047851,0.335972c-0.465978,-0.271977 -4.543286,-1.235096 -7.302367,-1.718255zm-18.43679,-0.099192c-0.714295,1.638262 -2.706965,3.743684 -4.316428,4.569215c-1.588004,0.819131 -4.077308,1.443078 -6.897701,1.740653c-1.928291,0.204783 -12.682574,0.265578 -14.457582,0.083193c-5.876842,-0.601549 -9.169345,-1.78225 -11.597335,-4.14685c-2.299234,-2.246211 -3.37221,-5.295553 -3.185205,-9.048837c0.11956,-2.348602 0.662179,-3.823678 2.081573,-5.615526c1.290637,-1.631862 2.648717,-2.639777 4.248984,-3.151734c1.339687,-0.428764 5.450717,-0.467161 10.978075,-0.095992c2.443319,0.163186 4.463579,0.163186 6.903833,0c5.781807,-0.380768 9.641454,-0.339171 11.066979,0.12159c2.240987,0.723139 4.282706,2.668575 5.508964,5.260356c0.551816,1.158302 0.659114,1.651061 0.73882,3.43971c0.110363,2.463792 -0.297368,5.081171 -1.072976,6.844223zm-29.154285,-10.578308c-3.289437,-0.601549 -5.168678,5.276355 -2.645652,8.277702c1.198667,1.42388 2.262446,1.65746 3.592936,0.793533c1.232389,-0.803132 1.9007,-2.303806 1.9007,-4.249242c0,-2.594981 -1.131223,-4.50202 -2.847984,-4.821993zm19.966547,0.35197c-3.289437,-0.601549 -5.171743,5.269956 -2.648717,8.274502c1.201733,1.42388 2.262446,1.66066 3.596002,0.790333c1.229324,-0.799933 1.9007,-2.303806 1.9007,-4.249242c0,-2.585382 -1.131223,-4.498821 -2.847984,-4.815594zm-8.847452,11.557425c-0.07051,0.23678 -0.413862,0.58875 -0.76028,0.777534c-0.876775,0.47036 -1.508297,0.307174 -2.434122,-0.572752c-0.573276,-0.540754 -0.833855,-0.82553 -1.008597,-0.259178c-0.162479,0.524756 0.858381,1.577467 1.646251,1.90064c0.723492,0.300775 1.241586,0.310374 2.026391,-0.031997c0.778674,-0.339171 1.459247,-1.251094 1.459247,-1.843045c0,-0.550354 -0.757214,-0.524756 -0.92889,0.028798zm-0.971809,-1.839845c0.4997,-0.460761 0.613129,-1.407881 0.134888,-1.910239s-1.45005,-0.425564 -1.83019,0.137588c-0.441453,0.659144 -0.205398,1.161502 0.110363,1.695857c0.490503,0.396767 1.149617,0.47676 1.584939,0.076794z" stroke-opacity="null" stroke-width="1.5" stroke="#000" fill="#000000"/>
 </g>
</svg>