<?xml version="1.0" encoding="UTF-8" standalone="no"?>
<svg xmlns:rdf="http://www.w3.org/1999/02/22-rdf-syntax-ns#" xmlns="http://www.w3.org/2000/svg" version="1.1" xmlns:cc="http://creativecommons.org/ns#" xmlns:dc="http://purl.org/dc/elements/1.1/" viewBox="0 0 780 500">
 <g transform="translate(0 -5.5e2)">
  <g fill-opacity=".20" fill="#e17500">
   <rect height="1e2" width="1e2" y="7.1e2" x="4.1e2"/>
   <rect height="1e2" width="1e2" y="6.1e2" x="5.1e2"/>
   <rect height="1e2" width="1e2" y="7.1e2" x="3.1e2"/>
   <rect height="1e2" width="1e2" y="8.1e2" x="2.1e2"/>
   <rect height="1e2" width="1e2" y="6.1e2" x="6.1e2"/>
  </g>
  <g stroke="#000" fill="none">
   <path d="m1.1e2 6.1e2v4e2" stroke-width="1.1px"/>
   <g stroke-dasharray="2.25538, 1.1277" stroke-width="1.1">
    <path d="m2.1e2 6.1e2v4e2"/>
    <path d="m3.1e2 6.1e2v4e2"/>
    <path d="m4.1e2 6.1e2v4e2"/>
    <path d="m5.1e2 6.1e2v4e2"/>
    <path d="m6.1e2 6.1e2v4e2"/>
   </g>
   <g stroke-dasharray="2.18979, 1.0949" stroke-width="1.1">
    <path d="m1.1e2 6.1e2h6e2"/>
    <path d="m1.1e2 7.1e2h6e2"/>
    <path d="m1.1e2 8.1e2h6e2"/>
   </g>
   <path d="m1.1e2 9.1e2h6e2" stroke-width="1.1px"/>
  </g>
  <g font-size="17px" font-family="sans-serif" fill="#000000">
   <text style="word-spacing:0px;letter-spacing:0px" xml:space="preserve" line-height="125%" y="931.07861" x="150.3844"><tspan y="931.07861" x="150.3844">0</tspan></text>
   <text style="word-spacing:0px;letter-spacing:0px" xml:space="preserve" line-height="125%" y="931.1037" x="249.3941"><tspan y="931.1037" x="249.3941">1</tspan></text>
   <text style="word-spacing:0px;letter-spacing:0px" xml:space="preserve" line-height="125%" y="931.21246" x="349.63916"><tspan y="931.21246" x="349.63916">2</tspan></text>
   <text style="word-spacing:0px;letter-spacing:0px" xml:space="preserve" line-height="125%" y="931.08276" x="450.75964"><tspan y="931.08276" x="450.75964">3</tspan></text>
   <text style="word-spacing:0px;letter-spacing:0px" xml:space="preserve" line-height="125%" y="931.08276" x="550.47174"><tspan y="931.08276" x="550.47174">4</tspan></text>
   <text style="word-spacing:0px;letter-spacing:0px" xml:space="preserve" line-height="125%" y="866.25336" x="81.113174"><tspan y="866.25336" x="81.113174">0</tspan></text>
   <text style="word-spacing:0px;letter-spacing:0px" xml:space="preserve" line-height="125%" y="767.22406" x="79.93354"><tspan y="767.22406" x="79.93354">1</tspan></text>
   <text style="word-spacing:0px;letter-spacing:0px" xml:space="preserve" line-height="125%" y="668.27838" x="80.912384"><tspan y="668.27838" x="80.912384">2</tspan></text>
  </g>
  <path d="m1.6e2 8.6e2 5e2 -2e2" stroke="#fb0000" stroke-dasharray="3.63671, 3.63671" stroke-width="1.2" fill="none"/>
  <g>
   <circle cy="6.6e2" cx="1.6e2" r="5"/>
   <circle cy="8.6e2" cx="1.6e2" r="5"/>
   <circle cy="7.6e2" cx="1.6e2" r="5"/>
   <circle cy="6.6e2" cx="2.6e2" r="5"/>
   <circle cy="8.6e2" cx="2.6e2" r="5"/>
   <circle cy="7.6e2" cx="2.6e2" r="5"/>
   <circle cy="6.6e2" cx="3.6e2" r="5"/>
   <circle cy="8.6e2" cx="3.6e2" r="5"/>
   <circle cy="7.6e2" cx="3.6e2" r="5"/>
   <circle cy="6.6e2" cx="4.6e2" r="5"/>
   <circle cy="8.6e2" cx="4.6e2" r="5"/>
  </g>
  <path d="m4.6e2 8.6e2v-1.2e2h0.76" stroke="#000" stroke-dasharray="1.14514, 2.29029" stroke-width="1.1" fill="none"/>
  <g>
   <circle cy="6.6e2" cx="5.6e2" r="5"/>
   <circle cy="8.6e2" cx="5.6e2" r="5"/>
   <circle cy="7.6e2" cx="5.6e2" r="5"/>
  </g>
  <rect fill-opacity=".20" height="1e2" width="1e2" y="8.1e2" x="1.1e2" fill="#e17500"/>
  <path d="m2.6e2 8.3e2v32" stroke="#000" stroke-dasharray="1, 2" fill="none"/>
  <text style="word-spacing:0px;letter-spacing:0px" xml:space="preserve" font-size="40px" line-height="125%" y="685.85999" x="37.5" font-family="sans-serif" fill="#000000"><tspan y="685.85999" x="37.5"/></text>
  <path d="m7.1e2 6.1e2v4e2" stroke="#000" stroke-dasharray="2.25516, 1.12759" stroke-width="1.1" fill="none"/>
  <g>
   <circle cy="6.6e2" cx="6.6e2" r="5"/>
   <circle cy="8.6e2" cx="6.6e2" r="5"/>
   <circle cy="7.6e2" cx="6.6e2" r="5"/>
  </g>
  <text style="word-spacing:0px;letter-spacing:0px" xml:space="preserve" font-size="17px" line-height="125%" y="930.95313" x="650.04529" font-family="sans-serif" fill="#000000"><tspan y="930.95313" x="650.04529">5</tspan></text>
  <g stroke="#000" fill="none">
   <path d="m3.6e2 7.9e2v75" stroke-dasharray="1.52641, 3.05282" stroke-width="1.5"/>
   <path d="m5.6e2 8.6e2v-1.6e2" stroke-dasharray="1.07873, 2.15747" stroke-width="1.1"/>
   <path d="m6.6e2 8.6e2v-2e2" stroke-dasharray="1.09394, 2.18788" stroke-width="1.1"/>
  </g>
  <text style="word-spacing:0px;letter-spacing:0px" xml:space="preserve" font-size="17px" line-height="125%" y="928.56891" x="81.75737" font-family="sans-serif" fill="#000000"><tspan y="928.56891" x="81.75737">x</tspan></text>
  <text style="word-spacing:0px;letter-spacing:0px" xml:space="preserve" font-size="17px" line-height="125%" y="965.2514" x="150.3844" font-family="sans-serif" fill="#000000"><tspan y="965.2514" x="150.3844">0</tspan></text>
  <g stroke="#000" fill="#676767">
   <circle cy="8.2e2" cx="2.6e2" r="5"/>
   <circle cy="7.8e2" cx="3.6e2" r="5"/>
   <circle cy="7e2" cx="5.6e2" r="5"/>
  </g>
  <circle cy="7.6e2" cx="4.6e2" r="5"/>
  <g font-size="17px" font-family="sans-serif" fill="#000000">
   <text style="word-spacing:0px;letter-spacing:0px" xml:space="preserve" line-height="125%" y="998.58447" x="150.3844"><tspan y="998.58447" x="150.3844">0</tspan></text>
   <text style="word-spacing:0px;letter-spacing:0px" xml:space="preserve" line-height="125%" y="998.58447" x="249.63672"><tspan y="998.58447" x="249.63672">0</tspan></text>
   <text style="word-spacing:0px;letter-spacing:0px" xml:space="preserve" line-height="125%" y="998.84381" x="349.50531"><tspan y="998.84381" x="349.50531">1</tspan></text>
   <text style="word-spacing:0px;letter-spacing:0px" xml:space="preserve" line-height="125%" y="998.84381" x="450.56305"><tspan y="998.84381" x="450.56305">1</tspan></text>
   <text style="word-spacing:0px;letter-spacing:0px" xml:space="preserve" line-height="125%" y="998.84381" x="550.26257"><tspan y="998.84381" x="550.26257">2</tspan></text>
   <text style="word-spacing:0px;letter-spacing:0px" xml:space="preserve" line-height="125%" y="998.84381" x="650.10382"><tspan y="998.84381" x="650.10382">2</tspan></text>
  </g>
  <circle stroke="#000" cy="7.4e2" cx="4.6e2" r="5" fill="#676767"/>
  <g transform="matrix(.5 0 0 .5 1.6e2 6.2e2)">
   <g stroke-width="0" xml:space="preserve" transform="matrix(.71 0 0 -.71 -1.2e2 7.4e2)" stroke="#000" stroke-miterlimit="10"><path d="m4.8e2 4.3e2h-1.2c-0.1-0.77-0.46-2.8-0.91-3.2-0.27-0.2-3-0.2-3.4-0.2h-6.4c3.7 3.2 4.9 4.2 7 5.8 2.6 2.1 5 4.2 5 7.5 0 4.2-3.7 6.8-8.2 6.8-4.3 0-7.2-3-7.2-6.2 0-1.8 1.5-2 1.9-2 0.82 0 1.8 0.6 1.8 1.8 0 0.62-0.25 1.8-2.1 1.8 1.1 2.5 3.4 3.2 5.1 3.2 3.5 0 5.3-2.7 5.3-5.5 0-3-2.2-5.4-3.3-6.7l-8.4-8.3c-0.36-0.31-0.36-0.39-0.36-1.4h14z"/><polyline points="4.6e2 4.2e2 4.8e2 4.2e2 4.8e2 4.2e2 4.6e2 4.2e2"/><path d="m4.7e2 4.1e2h0.16 0.16 0.15 0.15 0.15 0.14 0.14 0.14 0.13 0.13 0.12 0.12 0.12 0.11 0.11 0.1 0.11 0.1 0.1 0.1 0.1 0.1 0.1 0.1 0.1 0.1 0.1 0.1 0.1 0.1 0.1 0.1c4.6 0 7.3 3.1 7.3 3.7 0 0.37-0.23 0.48-0.4 0.48-0.1 0-0.14 0-0.28-0.11-0.85-0.31-2.7-1-5.3-1-0.97 0-2.8 0.1-5.1 0.96-0.35 0.17-0.41 0.17-0.46 0.17-0.45 0-0.45-0.39-0.45-0.94v-10c0-0.59 0-1 0.56-1 0.32 0 0.35 0.1 0.71 0.48 1.5 1.9 3.6 2.2 4.8 2.2 2.1 0 3-1.7 3.2-2 0.63-1.2 0.83-2.5 0.83-4.5 0-1 0-3.1-1-4.6-0.86-1.3-2.4-2.1-4.1-2.1-2.3 0-4.6 1.2-5.5 3.6 1.3-0.1 2 0.76 2 1.7 0 1.5-1.3 1.8-1.7 1.8-0.1 0-1.8 0-1.8-1.9 0-3.1 2.9-6.3 7-6.3 4.5 0 8.4 3.3 8.4 7.7 0 3.9-3 7.6-7.3 7.6-1.5 0-3.3-0.37-4.9-1.7z"/></g>
  </g>
  <g transform="matrix(.5 0 0 .5 2.6e2 6.2e2)">
   <g stroke-width="0" xml:space="preserve" transform="matrix(.71 0 0 -.71 -1.2e2 7.4e2)" stroke="#000" stroke-miterlimit="10"><path d="m4.8e2 4.3e2v1.2h-3.9v16c0 0.72 0 0.97-0.76 0.97-0.43 0-0.57 0-0.91-0.49l-12-16v-1.2h10l0.23 1.2h-9.2l9.2 13v-13l-0.23-1.2v-2.9c0-1.2 0-1.6-2.8-1.6h-0.94v-1.2c1.7 0.1 4 0.14 5.2 0.14 1.3 0 3.5-0.1 5.3-0.14v1.2h-0.94c-2.8 0-2.8 0.42-2.8 1.6v2.9z"/><polyline points="4.6e2 4.2e2 4.8e2 4.2e2 4.8e2 4.2e2 4.6e2 4.2e2"/><path d="m4.7e2 4.1e2h0.16 0.16 0.15 0.15 0.15 0.14 0.14 0.14 0.13 0.13 0.12 0.12 0.12 0.11 0.11 0.1 0.11 0.1 0.1 0.1 0.1 0.1 0.1 0.1 0.1 0.1 0.1 0.1 0.1 0.1 0.1 0.1c4.6 0 7.3 3.1 7.3 3.7 0 0.37-0.23 0.48-0.4 0.48-0.1 0-0.14 0-0.28-0.11-0.85-0.31-2.7-1-5.3-1-0.97 0-2.8 0.1-5.1 0.96-0.35 0.17-0.41 0.17-0.46 0.17-0.45 0-0.45-0.39-0.45-0.94v-10c0-0.59 0-1 0.56-1 0.32 0 0.35 0.1 0.71 0.48 1.5 1.9 3.6 2.2 4.8 2.2 2.1 0 3-1.7 3.2-2 0.63-1.2 0.83-2.5 0.83-4.5 0-1 0-3.1-1-4.6-0.86-1.3-2.4-2.1-4.1-2.1-2.3 0-4.6 1.2-5.5 3.6 1.3-0.1 2 0.76 2 1.7 0 1.5-1.3 1.8-1.7 1.8-0.1 0-1.8 0-1.8-1.9 0-3.1 2.9-6.3 7-6.3 4.5 0 8.4 3.3 8.4 7.7 0 3.9-3 7.6-7.3 7.6-1.5 0-3.3-0.37-4.9-1.7z"/></g>
  </g>
  <g transform="matrix(.5 0 0 .5 3.6e2 6.2e2)">
   <g stroke-width="0" xml:space="preserve" transform="matrix(.71 0 0 -.71 -1.2e2 7.4e2)" stroke="#000" stroke-miterlimit="10"><path d="m4.7e2 4.4e2v0.1 0.1 0.1 0.1 0.1 0.1 0.1 0.1 0.1 0.1h-0.1-0.1-0.1-0.1c-3.1-3.2-7.5-3.2-9.1-3.2v-1.6c1 0 3.9 0 6.5 1.3v-26c0-1.8-0.14-2.4-4.6-2.4h-1.6v-1.6c1.8 0.16 6.1 0.16 8.1 0.16s6.3 0 8.1-0.16v1.6h-1.6c-4.5 0-4.6 0.54-4.6 2.4z"/><path d="m5e2 4.5e2v0.1h-0.1-0.1c-2.2-2.2-5.4-2.2-6.8-2.2v-1.2c0.84 0 3.1 0 5 0.97v-18c0-1.2 0-1.6-3.5-1.6h-1.3v-1.2c0.62 0 4.9 0.14 6.2 0.14 1.1 0 5.5-0.11 6.2-0.14v1.2h-1.3c-3.5 0-3.5 0.45-3.5 1.6z"/><polyline points="4.9e2 4.2e2 5.1e2 4.2e2 5.1e2 4.2e2 4.9e2 4.2e2"/><path d="m4.9e2 4.1e2h0.16 0.16 0.15 0.16 0.14 0.15 0.13 0.14 0.13 0.13 0.12 0.12 0.12 0.11 0.11 0.11 0.1 0.1 0.1 0.1 0.1 0.1 0.1 0.1 0.1 0.1 0.1 0.1 0.1 0.1 0.1 0.1c4.6 0 7.3 3.1 7.3 3.7 0 0.37-0.23 0.48-0.4 0.48-0.1 0-0.14 0-0.28-0.11-0.85-0.31-2.7-1-5.3-1-0.97 0-2.8 0.1-5.1 0.96-0.35 0.17-0.41 0.17-0.46 0.17-0.45 0-0.45-0.39-0.45-0.94v-10c0-0.59 0-1 0.56-1 0.32 0 0.35 0.1 0.71 0.48 1.5 1.9 3.6 2.2 4.8 2.2 2.1 0 3-1.7 3.2-2 0.63-1.2 0.83-2.5 0.83-4.5 0-1 0-3.1-1-4.6-0.85-1.3-2.4-2.1-4.1-2.1-2.3 0-4.6 1.2-5.5 3.6 1.3-0.1 2 0.76 2 1.7 0 1.5-1.3 1.8-1.7 1.8-0.1 0-1.8 0-1.8-1.9 0-3.1 2.9-6.3 7-6.3 4.5 0 8.4 3.3 8.4 7.7 0 3.9-3 7.6-7.3 7.6-1.5 0-3.3-0.37-4.9-1.7z"/></g>
  </g>
  <g transform="matrix(.5 0 0 .5 4.6e2 6.2e2)">
   <g stroke-width="0" xml:space="preserve" transform="matrix(.71 0 0 -.71 -1.2e2 7.4e2)" stroke="#000" stroke-miterlimit="10"><path d="m4.7e2 4.4e2v0.1 0.1 0.1 0.1 0.1 0.1 0.1 0.1 0.1 0.1h-0.1-0.1-0.1-0.1c-3.1-3.2-7.5-3.2-9.1-3.2v-1.6c1 0 3.9 0 6.5 1.3v-26c0-1.8-0.14-2.4-4.6-2.4h-1.6v-1.6c1.8 0.16 6.1 0.16 8.1 0.16s6.3 0 8.1-0.16v1.6h-1.6c-4.5 0-4.6 0.54-4.6 2.4z"/><path d="m5e2 4.4e2h0.25 0.25 0.24 0.24l0.23-0.1 0.23-0.1 0.22-0.1 0.21-0.1 0.21-0.1 0.2-0.1 0.2-0.12 0.19-0.12 0.18-0.14 0.18-0.15 0.16-0.16 0.16-0.17 0.15-0.18 0.15-0.19 0.13-0.2 0.13-0.22 0.11-0.22 0.11-0.24 0.1-0.24 0.1-0.26 0.1-0.27 0.1-0.28 0.1-0.29 0.1-0.3v-0.31-0.32-0.33-0.35c0-4.3-2.5-5.6-4.5-5.6-1.4 0-4.5 0.38-5.9 2.4 1.6 0.1 2 1.2 2 2 0 1.1-0.84 1.9-1.9 1.9-0.97 0-2-0.59-2-2 0-3.3 3.6-5.4 7.8-5.4 4.8 0 8.2 3.2 8.2 6.7 0 2.7-2.2 5.4-6.1 6.2 3.7 1.3 5 3.9 5 6.1 0 2.8-3.2 4.8-7 4.8-3.9 0-6.8-1.9-6.8-4.7 0-1.2 0.76-1.8 1.8-1.8 1.1 0 1.8 0.79 1.8 1.8s-0.69 1.8-1.8 1.8c1.2 1.6 3.6 1.9 4.9 1.9 1.6 0 3.8-0.77 3.8-3.8 0-1.5-0.48-3.1-1.4-4.1-1.2-1.3-2.1-1.4-3.9-1.5-0.88-0.1-0.94-0.1-1.1-0.11-0.1 0-0.36-0.1-0.36-0.45 0-0.49 0.31-0.49 0.91-0.49z"/><polyline points="4.9e2 4.2e2 5.1e2 4.2e2 5.1e2 4.2e2 4.9e2 4.2e2"/><path d="m4.9e2 4.1e2h0.16 0.16 0.15 0.16 0.14 0.15 0.13 0.14 0.13 0.13 0.12 0.12 0.12 0.11 0.11 0.11 0.1 0.1 0.1 0.1 0.1 0.1 0.1 0.1 0.1 0.1 0.1 0.1 0.1 0.1 0.1 0.1c4.6 0 7.3 3.1 7.3 3.7 0 0.37-0.23 0.48-0.4 0.48-0.1 0-0.14 0-0.28-0.11-0.85-0.31-2.7-1-5.3-1-0.97 0-2.8 0.1-5.1 0.96-0.35 0.17-0.41 0.17-0.46 0.17-0.45 0-0.45-0.39-0.45-0.94v-10c0-0.59 0-1 0.56-1 0.32 0 0.35 0.1 0.71 0.48 1.5 1.9 3.6 2.2 4.8 2.2 2.1 0 3-1.7 3.2-2 0.63-1.2 0.83-2.5 0.83-4.5 0-1 0-3.1-1-4.6-0.85-1.3-2.4-2.1-4.1-2.1-2.3 0-4.6 1.2-5.5 3.6 1.3-0.1 2 0.76 2 1.7 0 1.5-1.3 1.8-1.7 1.8-0.1 0-1.8 0-1.8-1.9 0-3.1 2.9-6.3 7-6.3 4.5 0 8.4 3.3 8.4 7.7 0 3.9-3 7.6-7.3 7.6-1.5 0-3.3-0.37-4.9-1.7z"/></g>
  </g>
  <g transform="matrix(.5 0 0 .5 5.6e2 6.2e2)">
   <g xml:space="preserve" transform="matrix(.71 0 0 -.71 -1.2e2 7.4e2)" stroke="#000" stroke-miterlimit="10" fill="none"><path stroke-width="0" fill="#000" d="m4.6e2 4.1e2 5.3 5.1c7.8 6.9 11 9.6 11 15 0 5.7-4.5 9.7-11 9.7-5.6 0-9.3-4.6-9.3-9 0-2.8 2.5-2.8 2.6-2.8 0.86 0 2.6 0.6 2.6 2.6 0 1.3-0.89 2.6-2.6 2.6-0.39 0-0.5 0-0.64-0.1 1.1 3.2 3.8 5.1 6.7 5.1 4.5 0 6.7-4 6.7-8.1 0-4-2.5-7.9-5.2-11l-9.6-11h18l1.4 8.7h-1.2c-0.25-1.5-0.59-3.7-1.1-4.4-0.36-0.39-3.6-0.39-4.7-0.39z"/></g>
  </g>
  <g transform="matrix(.5 0 0 .5 1.5e2 7.4e2)">
   <g stroke-width="0" xml:space="preserve" transform="matrix(.71 0 0 -.71 -1.2e2 7.4e2)" stroke="#000" stroke-miterlimit="10"><path d="m4.8e2 4.3e2h-1.2c-0.1-0.77-0.46-2.8-0.91-3.2-0.27-0.2-3-0.2-3.4-0.2h-6.4c3.7 3.2 4.9 4.2 7 5.8 2.6 2.1 5 4.2 5 7.5 0 4.2-3.7 6.8-8.2 6.8-4.3 0-7.2-3-7.2-6.2 0-1.8 1.5-2 1.9-2 0.82 0 1.8 0.6 1.8 1.8 0 0.62-0.25 1.8-2.1 1.8 1.1 2.5 3.4 3.2 5.1 3.2 3.5 0 5.3-2.7 5.3-5.5 0-3-2.2-5.4-3.3-6.7l-8.4-8.3c-0.36-0.31-0.36-0.39-0.36-1.4h14z"/><polyline points="4.6e2 4.2e2 4.8e2 4.2e2 4.8e2 4.2e2 4.6e2 4.2e2"/><path d="m4.7e2 4.1e2h0.16 0.16 0.15 0.15 0.15 0.14 0.14 0.14 0.13 0.13 0.12 0.12 0.12 0.11 0.11 0.1 0.11 0.1 0.1 0.1 0.1 0.1 0.1 0.1 0.1 0.1 0.1 0.1 0.1 0.1 0.1 0.1c4.6 0 7.3 3.1 7.3 3.7 0 0.37-0.23 0.48-0.4 0.48-0.1 0-0.14 0-0.28-0.11-0.85-0.31-2.7-1-5.3-1-0.97 0-2.8 0.1-5.1 0.96-0.35 0.17-0.41 0.17-0.46 0.17-0.45 0-0.45-0.39-0.45-0.94v-10c0-0.59 0-1 0.56-1 0.32 0 0.35 0.1 0.71 0.48 1.5 1.9 3.6 2.2 4.8 2.2 2.1 0 3-1.7 3.2-2 0.63-1.2 0.83-2.5 0.83-4.5 0-1 0-3.1-1-4.6-0.86-1.3-2.4-2.1-4.1-2.1-2.3 0-4.6 1.2-5.5 3.6 1.3-0.1 2 0.76 2 1.7 0 1.5-1.3 1.8-1.7 1.8-0.1 0-1.8 0-1.8-1.9 0-3.1 2.9-6.3 7-6.3 4.5 0 8.4 3.3 8.4 7.7 0 3.9-3 7.6-7.3 7.6-1.5 0-3.3-0.37-4.9-1.7z"/></g>
  </g>
  <g transform="matrix(.5 0 0 .5 2.5e2 7.4e2)">
   <g stroke-width="0" xml:space="preserve" transform="matrix(.71 0 0 -.71 -1.2e2 7.4e2)" stroke="#000" stroke-miterlimit="10"><path d="m4.8e2 4.3e2v1.2h-3.9v16c0 0.72 0 0.97-0.76 0.97-0.43 0-0.57 0-0.91-0.49l-12-16v-1.2h10l0.23 1.2h-9.2l9.2 13v-13l-0.23-1.2v-2.9c0-1.2 0-1.6-2.8-1.6h-0.94v-1.2c1.7 0.1 4 0.14 5.2 0.14 1.3 0 3.5-0.1 5.3-0.14v1.2h-0.94c-2.8 0-2.8 0.42-2.8 1.6v2.9z"/><polyline points="4.6e2 4.2e2 4.8e2 4.2e2 4.8e2 4.2e2 4.6e2 4.2e2"/><path d="m4.7e2 4.1e2h0.16 0.16 0.15 0.15 0.15 0.14 0.14 0.14 0.13 0.13 0.12 0.12 0.12 0.11 0.11 0.1 0.11 0.1 0.1 0.1 0.1 0.1 0.1 0.1 0.1 0.1 0.1 0.1 0.1 0.1 0.1 0.1c4.6 0 7.3 3.1 7.3 3.7 0 0.37-0.23 0.48-0.4 0.48-0.1 0-0.14 0-0.28-0.11-0.85-0.31-2.7-1-5.3-1-0.97 0-2.8 0.1-5.1 0.96-0.35 0.17-0.41 0.17-0.46 0.17-0.45 0-0.45-0.39-0.45-0.94v-10c0-0.59 0-1 0.56-1 0.32 0 0.35 0.1 0.71 0.48 1.5 1.9 3.6 2.2 4.8 2.2 2.1 0 3-1.7 3.2-2 0.63-1.2 0.83-2.5 0.83-4.5 0-1 0-3.1-1-4.6-0.86-1.3-2.4-2.1-4.1-2.1-2.3 0-4.6 1.2-5.5 3.6 1.3-0.1 2 0.76 2 1.7 0 1.5-1.3 1.8-1.7 1.8-0.1 0-1.8 0-1.8-1.9 0-3.1 2.9-6.3 7-6.3 4.5 0 8.4 3.3 8.4 7.7 0 3.9-3 7.6-7.3 7.6-1.5 0-3.3-0.37-4.9-1.7z"/></g>
  </g>
  <g transform="matrix(.5 0 0 .5 3.5e2 7.4e2)">
   <g stroke-width="0" xml:space="preserve" transform="matrix(.71 0 0 -.71 -1.2e2 7.4e2)" stroke="#000" stroke-miterlimit="10"><path d="m4.7e2 4.4e2v0.1 0.1 0.1 0.1 0.1 0.1 0.1 0.1 0.1 0.1h-0.1-0.1-0.1-0.1c-3.1-3.2-7.5-3.2-9.1-3.2v-1.6c1 0 3.9 0 6.5 1.3v-26c0-1.8-0.14-2.4-4.6-2.4h-1.6v-1.6c1.8 0.16 6.1 0.16 8.1 0.16s6.3 0 8.1-0.16v1.6h-1.6c-4.5 0-4.6 0.54-4.6 2.4z"/><path d="m5e2 4.5e2v0.1h-0.1-0.1c-2.2-2.2-5.4-2.2-6.8-2.2v-1.2c0.84 0 3.1 0 5 0.97v-18c0-1.2 0-1.6-3.5-1.6h-1.3v-1.2c0.62 0 4.9 0.14 6.2 0.14 1.1 0 5.5-0.11 6.2-0.14v1.2h-1.3c-3.5 0-3.5 0.45-3.5 1.6z"/><polyline points="4.9e2 4.2e2 5.1e2 4.2e2 5.1e2 4.2e2 4.9e2 4.2e2"/><path d="m4.9e2 4.1e2h0.16 0.16 0.15 0.16 0.14 0.15 0.13 0.14 0.13 0.13 0.12 0.12 0.12 0.11 0.11 0.11 0.1 0.1 0.1 0.1 0.1 0.1 0.1 0.1 0.1 0.1 0.1 0.1 0.1 0.1 0.1 0.1c4.6 0 7.3 3.1 7.3 3.7 0 0.37-0.23 0.48-0.4 0.48-0.1 0-0.14 0-0.28-0.11-0.85-0.31-2.7-1-5.3-1-0.97 0-2.8 0.1-5.1 0.96-0.35 0.17-0.41 0.17-0.46 0.17-0.45 0-0.45-0.39-0.45-0.94v-10c0-0.59 0-1 0.56-1 0.32 0 0.35 0.1 0.71 0.48 1.5 1.9 3.6 2.2 4.8 2.2 2.1 0 3-1.7 3.2-2 0.63-1.2 0.83-2.5 0.83-4.5 0-1 0-3.1-1-4.6-0.85-1.3-2.4-2.1-4.1-2.1-2.3 0-4.6 1.2-5.5 3.6 1.3-0.1 2 0.76 2 1.7 0 1.5-1.3 1.8-1.7 1.8-0.1 0-1.8 0-1.8-1.9 0-3.1 2.9-6.3 7-6.3 4.5 0 8.4 3.3 8.4 7.7 0 3.9-3 7.6-7.3 7.6-1.5 0-3.3-0.37-4.9-1.7z"/></g>
  </g>
  <g transform="matrix(.5 0 0 .5 4.5e2 7.4e2)">
   <g stroke-width="0" xml:space="preserve" transform="matrix(.71 0 0 -.71 -1.2e2 7.4e2)" stroke="#000" stroke-miterlimit="10"><path d="m4.7e2 4.4e2v0.1 0.1 0.1 0.1 0.1 0.1 0.1 0.1 0.1 0.1h-0.1-0.1-0.1-0.1c-3.1-3.2-7.5-3.2-9.1-3.2v-1.6c1 0 3.9 0 6.5 1.3v-26c0-1.8-0.14-2.4-4.6-2.4h-1.6v-1.6c1.8 0.16 6.1 0.16 8.1 0.16s6.3 0 8.1-0.16v1.6h-1.6c-4.5 0-4.6 0.54-4.6 2.4z"/><path d="m5e2 4.4e2h0.25 0.25 0.24 0.24l0.23-0.1 0.23-0.1 0.22-0.1 0.21-0.1 0.21-0.1 0.2-0.1 0.2-0.12 0.19-0.12 0.18-0.14 0.18-0.15 0.16-0.16 0.16-0.17 0.15-0.18 0.15-0.19 0.13-0.2 0.13-0.22 0.11-0.22 0.11-0.24 0.1-0.24 0.1-0.26 0.1-0.27 0.1-0.28 0.1-0.29 0.1-0.3v-0.31-0.32-0.33-0.35c0-4.3-2.5-5.6-4.5-5.6-1.4 0-4.5 0.38-5.9 2.4 1.6 0.1 2 1.2 2 2 0 1.1-0.84 1.9-1.9 1.9-0.97 0-2-0.59-2-2 0-3.3 3.6-5.4 7.8-5.4 4.8 0 8.2 3.2 8.2 6.7 0 2.7-2.2 5.4-6.1 6.2 3.7 1.3 5 3.9 5 6.1 0 2.8-3.2 4.8-7 4.8-3.9 0-6.8-1.9-6.8-4.7 0-1.2 0.76-1.8 1.8-1.8 1.1 0 1.8 0.79 1.8 1.8s-0.69 1.8-1.8 1.8c1.2 1.6 3.6 1.9 4.9 1.9 1.6 0 3.8-0.77 3.8-3.8 0-1.5-0.48-3.1-1.4-4.1-1.2-1.3-2.1-1.4-3.9-1.5-0.88-0.1-0.94-0.1-1.1-0.11-0.1 0-0.36-0.1-0.36-0.45 0-0.49 0.31-0.49 0.91-0.49z"/><polyline points="4.9e2 4.2e2 5.1e2 4.2e2 5.1e2 4.2e2 4.9e2 4.2e2"/><path d="m4.9e2 4.1e2h0.16 0.16 0.15 0.16 0.14 0.15 0.13 0.14 0.13 0.13 0.12 0.12 0.12 0.11 0.11 0.11 0.1 0.1 0.1 0.1 0.1 0.1 0.1 0.1 0.1 0.1 0.1 0.1 0.1 0.1 0.1 0.1c4.6 0 7.3 3.1 7.3 3.7 0 0.37-0.23 0.48-0.4 0.48-0.1 0-0.14 0-0.28-0.11-0.85-0.31-2.7-1-5.3-1-0.97 0-2.8 0.1-5.1 0.96-0.35 0.17-0.41 0.17-0.46 0.17-0.45 0-0.45-0.39-0.45-0.94v-10c0-0.59 0-1 0.56-1 0.32 0 0.35 0.1 0.71 0.48 1.5 1.9 3.6 2.2 4.8 2.2 2.1 0 3-1.7 3.2-2 0.63-1.2 0.83-2.5 0.83-4.5 0-1 0-3.1-1-4.6-0.85-1.3-2.4-2.1-4.1-2.1-2.3 0-4.6 1.2-5.5 3.6 1.3-0.1 2 0.76 2 1.7 0 1.5-1.3 1.8-1.7 1.8-0.1 0-1.8 0-1.8-1.9 0-3.1 2.9-6.3 7-6.3 4.5 0 8.4 3.3 8.4 7.7 0 3.9-3 7.6-7.3 7.6-1.5 0-3.3-0.37-4.9-1.7z"/></g>
  </g>
  <g transform="matrix(.5 0 0 .5 5.5e2 7.4e2)">
   <g xml:space="preserve" transform="matrix(.71 0 0 -.71 -1.2e2 7.4e2)" stroke="#000" stroke-miterlimit="10" fill="none"><path stroke-width="0" fill="#000" d="m4.6e2 4.1e2 5.3 5.1c7.8 6.9 11 9.6 11 15 0 5.7-4.5 9.7-11 9.7-5.6 0-9.3-4.6-9.3-9 0-2.8 2.5-2.8 2.6-2.8 0.86 0 2.6 0.6 2.6 2.6 0 1.3-0.89 2.6-2.6 2.6-0.39 0-0.5 0-0.64-0.1 1.1 3.2 3.8 5.1 6.7 5.1 4.5 0 6.7-4 6.7-8.1 0-4-2.5-7.9-5.2-11l-9.6-11h18l1.4 8.7h-1.2c-0.25-1.5-0.59-3.7-1.1-4.4-0.36-0.39-3.6-0.39-4.7-0.39z"/></g>
  </g>
  <text style="word-spacing:0px;letter-spacing:0px" xml:space="preserve" font-size="17px" line-height="125%" y="961.03253" x="81.749001" font-family="sans-serif" fill="#000000"><tspan y="961.03253" x="81.749001">y</tspan></text>
  <text style="word-spacing:0px;letter-spacing:0px" xml:space="preserve" font-size="17px" line-height="125%" y="995.39697" x="22.263412" font-family="sans-serif" fill="#000000"><tspan y="995.39697" x="22.263412">round(y)</tspan></text>
  <g stroke="#000" stroke-width="1.1px" fill="none">
   <path d="m1.1e2 1e3h6e2"/>
   <path d="m1.1e2 9.4e2h6e2"/>
   <path d="m1.1e2 9.8e2h6e2"/>
  </g>
  <text style="word-spacing:0px;letter-spacing:0px" xml:space="preserve" font-size="20px" line-height="125%" y="594.11292" x="340.48761" font-family="sans-serif" fill="#000000"><tspan y="594.11292" x="340.48761">図１　DDA</tspan></text>
 </g>
</svg>
